<?xml version="1.0" encoding="UTF-8"?>
<svg xmlns="http://www.w3.org/2000/svg" id="Ebene_1" viewBox="0 0 375.86 80.36">
  <defs>
    <style>.cls-1{fill:#e2001a;}</style>
  </defs>
  <path class="cls-1" d="M358.02,38.48v-10.52c0-2.66-1.86-4.66-4.53-4.66h-2.13c-1.2,0-2,.27-2.93,1.06-.93-.8-1.46-1.06-2.8-1.06h-1.73c-1.2,0-2.13,1.06-2.26,1.2v-1.06h-3.33v15.04h3.33v-10.92c0-.67.8-1.2,1.6-1.2h1.73c.8,0,1.6.67,1.6,1.46v10.65h3.33v-10.65c0-.8.67-1.46,1.6-1.46h1.46c.93,0,1.73.67,1.73,1.6v10.52h3.33Z"></path>
  <path class="cls-1" d="M334.72,38.48v-15.04h-3.46v10.78c-.27.67-.93,1.2-1.73,1.2h-1.86c-.93,0-1.73-.67-1.73-1.6v-10.38h-3.33v10.38c0,2.66,2,4.79,4.79,4.79h1.6c1.2,0,2.13-1.07,2.26-1.2v1.07h3.46Z"></path>
  <path class="cls-1" d="M318.75,38.48v-10.52c0-2.66-2-4.66-4.79-4.66h-1.6c-1.2,0-2.13,1.06-2.26,1.2v-6.79h-3.46v20.77h3.46v-10.92c0-.8.93-1.2,1.73-1.2h1.86c.93,0,1.73.67,1.73,1.6v10.52h3.33Z"></path>
  <path class="cls-1" d="M303.44,33.82v-.13h-3.46c0,1.46-.53,1.73-1.6,1.73h-2c-.93,0-1.6-.8-1.6-1.73v-5.72c0-.93.67-1.6,1.6-1.6h2c.93,0,1.6.67,1.6,1.6h3.46c0-2.8-2.13-4.66-5.06-4.66h-2.13c-2.8,0-4.93,2.13-4.93,4.79v5.59c0,2.66,2.26,4.93,5.06,4.93h2.13c3.06,0,4.93-2.13,4.93-4.79h0Z"></path>
  <path class="cls-1" d="M283.21,23.3h-2c-2.8,0-4.93,2.13-4.93,4.79v5.59c0,2.66,2.13,4.93,4.93,4.93h2c2.8,0,5.06-2.13,5.06-4.79v-5.72c0-2.66-2.26-4.79-5.06-4.79ZM284.94,33.82c0,.93-.8,1.6-1.73,1.6h-1.86c-.93,0-1.73-.67-1.73-1.6v-5.86c0-.93.8-1.6,1.73-1.6h1.86c.93,0,1.73.67,1.73,1.6v5.86Z"></path>
  <path class="cls-1" d="M272.56,22.9c0-2.8-2.4-5.19-5.19-5.19h-8.65v20.77h8.65c2.8,0,5.19-2.26,5.19-5.19v-1.86c0-1.33-.53-2.53-1.33-3.46.8-.93,1.33-2.13,1.33-3.46v-1.6ZM268.97,33.29c0,.93-.67,1.73-1.6,1.73h-5.06v-5.46h5.06c.93,0,1.6.93,1.6,1.86v1.86ZM268.97,24.63c0,.93-.67,1.6-1.6,1.6h-5.06v-5.19h5.06c.93,0,1.6.8,1.6,1.73v1.86Z"></path>
  <path class="cls-1" d="M230.24,38.61v-3.19h-1.06c-.93,0-1.6-.67-1.6-1.6v-16.11h-3.46v16.11c0,2.66,2.26,4.79,5.06,4.79h1.06Z"></path>
  <path class="cls-1" d="M220.52,38.48v-15.04h-3.33v10.78c0,.67-.8,1.2-1.73,1.2h-2c-.93,0-1.6-.67-1.6-1.6v-10.38h-3.46v10.38c0,2.66,2.13,4.79,4.93,4.79h1.46c1.2,0,2.26-1.07,2.4-1.2v1.07h3.33Z"></path>
  <path class="cls-1" d="M204.68,38.48v-10.52c0-2.66-1.73-4.66-4.79-4.66h-1.46c-1.33,0-2.4,1.2-2.4,1.2v-6.79h-3.46v20.77h3.46v-11.45s.53-.67,1.86-.67h1.86c1.06,0,1.6.67,1.6,1.6v10.52h3.33Z"></path>
  <path class="cls-1" d="M189.24,33.82v-.13h-3.33c0,1.46-.53,1.73-1.6,1.73h-2c-.93,0-1.73-.8-1.73-1.73v-5.72c0-.93.8-1.6,1.73-1.6h2c.93,0,1.6.67,1.6,1.6h3.33c0-2.8-2-4.66-4.93-4.66h-2.13c-2.8,0-4.93,2.13-4.93,4.79v5.59c0,2.66,2.13,4.93,4.93,4.93h2.13c2.8,0,4.93-2.13,4.93-4.79h0Z"></path>
  <path class="cls-1" d="M174.2,34.48v-1.2c0-2.4-1.6-3.99-3.86-3.99h-4.13c-.4,0-.8-.13-.8-.67v-1.6c0-.53.4-.67.8-.67h3.06c.53,0,.93.13.93,1.07h3.46c0-2.4-2-4.13-4.26-4.13h-3.19c-2.26,0-4.13,1.73-4.13,3.99v1.2c0,2.26,1.86,3.86,4.13,3.86h3.59c.4,0,.93.27.93.8v1.6c0,.4-.4.67-.93.67h-3.86c-.53,0-.8-.27-.8-1.07h-3.46c0,2.4,1.86,4.26,4.13,4.26h4.13c2.4,0,4.26-1.86,4.26-4.13h0Z"></path>
  <path class="cls-1" d="M158.62,38.48v-10.52c0-2.66-1.86-4.66-4.66-4.66h-1.73c-1.2,0-2.13,1.06-2.26,1.2v-6.79h-3.46v20.77h3.46v-10.92c0-.8.8-1.2,1.6-1.2h2c1.06,0,1.73.67,1.73,1.6v10.52h3.33Z"></path>
  <path class="cls-1" d="M143.32,33.82v-.13h-3.46c0,1.46-.53,1.73-1.6,1.73h-2c-.93,0-1.6-.8-1.6-1.73v-5.72c0-.93.67-1.6,1.6-1.6h2c1.06,0,1.6.67,1.6,1.6h3.46c0-2.8-2.13-4.66-5.06-4.66h-2.26c-2.8,0-4.79,2.13-4.79,4.79v5.59c0,2.66,2.13,4.93,4.93,4.93h2.13c2.8,0,5.06-2.13,5.06-4.79h0Z"></path>
  <polygon class="cls-1" points="112.3 38.48 112.3 17.71 108.71 17.71 108.71 26.23 102.05 26.23 102.05 17.71 98.46 17.71 98.46 38.48 102.05 38.48 102.05 29.69 108.71 29.69 108.71 38.48 112.3 38.48 112.3 38.48"></polygon>
  <path class="cls-1" d="M244.62,32.62v-4.53c0-2.66-2.13-4.79-4.93-4.79h-2c-2.8,0-5.06,2.13-5.06,4.79v5.59c0,2.66,2.26,4.93,5.06,4.93h2.26c2.53,0,4.66-1.86,4.66-4.26h-3.46c0,.53-.4,1.07-1.2,1.07h-2.26c-.93,0-1.73-.67-1.73-1.6v-1.2h8.65ZM235.96,27.96c0-.93.8-1.6,1.73-1.6h1.86c.93,0,1.73.67,1.73,1.6v1.6h-5.32v-1.6Z"></path>
  <path class="cls-1" d="M122.95,23.3h-2c-2.8,0-5.06,2.13-5.06,4.79v5.59c0,2.66,2.26,4.93,5.06,4.93h2c2.8,0,4.93-2.13,4.93-4.79v-5.72c0-2.66-2.13-4.79-4.93-4.79ZM124.55,33.82c0,.93-.67,1.6-1.6,1.6h-2c-1.06,0-1.73-.67-1.73-1.6v-5.86c0-.93.8-1.6,1.73-1.6h2c.93,0,1.6.67,1.6,1.6v5.86Z"></path>
  <path class="cls-1" d="M46.97,33.39h-5.65v.22c0,1.73-1.41,3.14-3.14,3.14h-4.67v5.65h4.67c1.73,0,3.14,1.41,3.14,3.14v1.3h5.65v-1.3c0-2.31-.89-4.4-2.35-5.97,1.45-1.57,2.35-3.66,2.35-5.97v-.22Z"></path>
  <path class="cls-1" d="M33.51,23.36h5.34c1.36,0,2.46,1.11,2.46,2.46v5.34h5.65v-5.34c0-4.48-3.63-8.12-8.12-8.12h-5.34v5.65Z"></path>
  <polygon class="cls-1" points="17.84 33.39 17.84 46.85 23.49 46.85 23.49 42.41 31.29 42.41 31.29 36.76 23.49 36.76 23.49 33.39 17.84 33.39"></polygon>
  <path class="cls-1" d="M41.32,49.07v5.34c0,1.36-1.11,2.46-2.46,2.46h-5.34v5.65h5.34c4.48,0,8.12-3.63,8.12-8.12v-5.34h-5.65Z"></path>
  <polygon class="cls-1" points="31.29 56.88 23.49 56.88 23.49 49.07 17.84 49.07 17.84 62.53 31.29 62.53 31.29 56.88"></polygon>
  <polygon class="cls-1" points="23.49 31.17 23.49 23.36 31.29 23.36 31.29 17.71 17.84 17.71 17.84 31.17 23.49 31.17"></polygon>
  <rect class="cls-1" x="51.48" y="33.39" width="5.65" height="13.46"></rect>
  <path class="cls-1" d="M67.16,23.36h5.34c1.36,0,2.46,1.11,2.46,2.46v5.34h5.65v-5.34c0-4.48-3.63-8.12-8.12-8.12h-5.34v5.65Z"></path>
  <rect class="cls-1" x="74.97" y="33.39" width="5.65" height="13.46"></rect>
  <path class="cls-1" d="M64.94,56.88h-5.34c-1.36,0-2.46-1.11-2.46-2.46v-5.34h-5.65v5.34c0,4.48,3.63,8.12,8.12,8.12h5.34v-5.65Z"></path>
  <path class="cls-1" d="M74.97,49.07v5.34c0,1.36-1.11,2.46-2.46,2.46h-5.34v5.65h5.34c4.48,0,8.12-3.63,8.12-8.12v-5.34h-5.65Z"></path>
  <path class="cls-1" d="M57.13,31.17v-5.34c0-1.36,1.11-2.46,2.46-2.46h5.34v-5.65h-5.34c-4.48,0-8.12,3.63-8.12,8.12v5.34h5.65Z"></path>
  <path class="cls-1" d="M102.71,53.69v8.84h-1.82v-8.84h-2.63v-1.74h7.07v1.74h-2.62Z"></path>
  <path class="cls-1" d="M107.56,62.53v-10.58h6.2v1.74h-4.39v2.66h4.39v1.74h-4.39v2.71h4.39v1.74h-6.2Z"></path>
  <path class="cls-1" d="M123.44,60.02c0,.37-.07.71-.21,1.03-.14.32-.32.6-.57.84-.24.24-.52.43-.84.57-.32.14-.66.21-1.03.21h-1.78c-.37,0-.71-.07-1.03-.21-.32-.14-.6-.32-.84-.57s-.43-.52-.57-.84-.2-.66-.2-1.03v-5.55c0-.36.07-.71.2-1.03s.33-.6.57-.84.52-.43.84-.57c.32-.14.67-.21,1.03-.21h1.78c.36,0,.71.07,1.03.21.32.14.6.33.84.57.24.24.43.52.57.84.14.32.21.66.21,1.03h-1.82c0-.24-.08-.45-.25-.64-.17-.19-.37-.28-.61-.28h-1.73c-.24,0-.44.08-.6.25s-.24.37-.24.61v5.67c0,.24.08.44.24.61.16.17.36.25.6.25h1.73c.24,0,.44-.09.61-.28.17-.18.25-.4.25-.64h1.82Z"></path>
  <path class="cls-1" d="M131.07,62.53v-4.44h-3.44v4.44h-1.82v-10.58h1.82v4.4h3.44v-4.4h1.82v10.58h-1.82Z"></path>
  <path class="cls-1" d="M140.86,62.53l-3.39-6.76v6.76h-1.82v-10.58h1.88l3.38,7.03v-7.03h1.82v10.58h-1.87Z"></path>
  <path class="cls-1" d="M145.71,62.53v-10.6h1.82v10.6h-1.82Z"></path>
  <path class="cls-1" d="M155.99,62.53l-3.66-4.54v4.54h-1.82v-10.58h1.82v4.35l3.66-4.35h2.26l-4.48,5.14,4.48,5.44h-2.26Z"></path>
  <path class="cls-1" d="M178.18,62.53h-2.28l-1.77-6.93-1.77,6.93h-2.29l-2.2-10.58h1.89l1.55,7.86,1.89-7.86h1.84l1.91,7.86,1.54-7.86h1.87l-2.18,10.58Z"></path>
  <path class="cls-1" d="M182.87,62.53v-10.6h1.82v10.6h-1.82Z"></path>
  <path class="cls-1" d="M192.81,62.53l-2.18-4.34h-1.22v4.34h-1.82v-10.58h4.43c.36,0,.7.07,1.03.22.32.14.6.34.84.58.24.24.43.52.57.84.14.32.21.66.21,1.03v.92c0,.32-.05.63-.16.92s-.26.55-.46.78c-.2.23-.43.43-.7.59-.27.16-.55.27-.86.33l2.32,4.38h-2.01ZM192.86,54.58c0-.24-.09-.45-.26-.63-.18-.18-.38-.27-.63-.27h-2.57v2.77h2.57c.24,0,.45-.08.63-.26.18-.17.26-.38.26-.62v-1Z"></path>
  <path class="cls-1" d="M201.06,53.69v8.84h-1.82v-8.84h-2.63v-1.74h7.07v1.74h-2.62Z"></path>
  <path class="cls-1" d="M212.75,60.01c0,.36-.07.7-.2,1.03s-.33.6-.57.84c-.24.24-.52.43-.84.57-.32.14-.66.21-1.03.21h-1.79c-.37,0-.71-.07-1.03-.21-.32-.14-.6-.33-.84-.57s-.43-.52-.57-.84c-.14-.32-.21-.66-.21-1.03h1.82c0,.24.09.45.26.64.17.19.38.29.62.29h1.69c.25,0,.45-.1.62-.29.17-.19.26-.4.26-.64v-.51c0-.36-.15-.62-.46-.78l-3.57-1.85c-.43-.24-.74-.56-.94-.95-.2-.39-.3-.83-.3-1.31v-.18c0-.36.07-.7.21-1.03.14-.32.32-.6.57-.84s.52-.43.84-.57c.32-.14.67-.2,1.03-.2h1.53c.36,0,.71.07,1.03.2.32.14.6.33.84.57.24.24.43.52.57.84.14.32.21.66.21,1.03h-1.84c0-.24-.08-.45-.26-.63-.17-.18-.38-.27-.62-.27h-1.43c-.24,0-.45.09-.62.27-.17.18-.26.39-.26.63v.18c0,.16.04.31.12.45.08.15.19.25.33.32l3.57,1.85c.43.23.74.54.94.94.19.4.29.84.29,1.33v.51Z"></path>
  <path class="cls-1" d="M222.22,60.02c0,.37-.07.71-.21,1.03-.14.32-.32.6-.57.84-.24.24-.52.43-.84.57-.32.14-.66.21-1.03.21h-1.78c-.37,0-.71-.07-1.03-.21-.32-.14-.6-.32-.84-.57s-.43-.52-.57-.84-.2-.66-.2-1.03v-5.55c0-.36.07-.71.2-1.03s.33-.6.57-.84.52-.43.84-.57c.32-.14.67-.21,1.03-.21h1.78c.36,0,.71.07,1.03.21.32.14.6.33.84.57.24.24.43.52.57.84.14.32.21.66.21,1.03h-1.82c0-.24-.08-.45-.25-.64-.17-.19-.37-.28-.61-.28h-1.73c-.24,0-.44.08-.6.25s-.24.37-.24.61v5.67c0,.24.08.44.24.61.16.17.36.25.6.25h1.73c.24,0,.44-.09.61-.28.17-.18.25-.4.25-.64h1.82Z"></path>
  <path class="cls-1" d="M229.91,62.53v-4.44h-3.44v4.44h-1.82v-10.58h1.82v4.4h3.44v-4.4h1.82v10.58h-1.82Z"></path>
  <path class="cls-1" d="M240.55,62.53l-.56-1.8h-3.88l-.57,1.8h-1.92l3.49-10.58h1.87l3.5,10.58h-1.93ZM238.04,54.27l-1.41,4.72h2.8l-1.39-4.72Z"></path>
  <path class="cls-1" d="M244.39,62.53v-10.58h6.2v1.74h-4.39v2.66h4.39v1.74h-4.39v4.44h-1.82Z"></path>
  <path class="cls-1" d="M257.28,53.69v8.84h-1.82v-8.84h-2.63v-1.74h7.07v1.74h-2.62Z"></path>
  <path class="cls-1" d="M277.6,60.06c0,.36-.07.69-.21,1.01-.14.31-.32.59-.56.83-.24.24-.51.43-.83.57-.32.14-.65.21-1,.21h-1.88c-.36,0-.7-.07-1.02-.21-.32-.14-.59-.33-.82-.57-.24-.24-.42-.52-.56-.84s-.2-.66-.2-1.01v-5.55c0-.36.07-.71.2-1.03s.33-.6.57-.84.52-.43.84-.57c.32-.14.67-.21,1.03-.21h1.78c.35,0,.69.07,1.01.21.32.14.6.33.84.57s.43.52.57.84c.14.32.21.66.21,1.01h-1.82c0-.24-.08-.45-.25-.63-.17-.18-.37-.27-.61-.27h-1.69c-.24,0-.45.09-.62.26-.17.18-.26.38-.26.63v5.62c0,.23.09.43.26.61.17.18.38.27.62.27h1.69c.23,0,.43-.09.6-.26.17-.17.26-.38.26-.62v-1.97h-1.72v-1.74h3.54v3.71Z"></path>
  <path class="cls-1" d="M280.28,62.53v-10.58h6.2v1.74h-4.39v2.66h4.39v1.74h-4.39v2.71h4.39v1.74h-6.2Z"></path>
  <path class="cls-1" d="M296.07,60.01c0,.36-.07.7-.2,1.03s-.33.6-.57.84c-.24.24-.52.43-.84.57-.32.14-.66.21-1.03.21h-1.79c-.37,0-.71-.07-1.03-.21-.32-.14-.6-.33-.84-.57s-.43-.52-.57-.84c-.14-.32-.21-.66-.21-1.03h1.82c0,.24.09.45.26.64.17.19.38.29.62.29h1.69c.25,0,.45-.1.62-.29.17-.19.26-.4.26-.64v-.51c0-.36-.15-.62-.46-.78l-3.57-1.85c-.43-.24-.74-.56-.94-.95-.2-.39-.3-.83-.3-1.31v-.18c0-.36.07-.7.21-1.03.14-.32.32-.6.57-.84s.52-.43.84-.57c.32-.14.67-.2,1.03-.2h1.53c.36,0,.71.07,1.03.2.32.14.6.33.84.57.24.24.43.52.57.84.14.32.21.66.21,1.03h-1.84c0-.24-.08-.45-.26-.63-.17-.18-.38-.27-.62-.27h-1.43c-.24,0-.45.09-.62.27-.17.18-.26.39-.26.63v.18c0,.16.04.31.12.45.08.15.19.25.33.32l3.57,1.85c.43.23.74.54.94.94.19.4.29.84.29,1.33v.51Z"></path>
  <path class="cls-1" d="M305.66,60.09c0,.35-.07.67-.21.98-.14.31-.32.58-.57.82-.24.24-.52.43-.83.57-.32.14-.64.21-.99.21h-1.88c-.36,0-.7-.07-1.02-.21-.32-.14-.59-.33-.82-.57-.24-.24-.42-.52-.56-.84s-.2-.66-.2-1.01v-8.07h1.82v8.11c0,.23.09.43.26.61.17.18.38.27.62.27h1.69c.23,0,.43-.09.6-.26.17-.17.26-.38.26-.62v-8.11h1.82v8.14Z"></path>
  <path class="cls-1" d="M313.55,62.53l-3.39-6.76v6.76h-1.82v-10.58h1.88l3.38,7.03v-7.03h1.82v10.58h-1.87Z"></path>
  <path class="cls-1" d="M325.17,59.92c0,.35-.07.69-.21,1-.14.32-.32.59-.56.83-.24.24-.51.43-.83.57-.32.14-.65.21-1,.21h-4.48v-10.58h4.43c.34,0,.67.07.99.21.32.14.61.33.85.57.25.24.44.52.58.83.14.31.21.65.21,1.01v5.36ZM323.35,54.57c0-.24-.1-.45-.29-.62-.19-.17-.4-.26-.63-.26h-2.52v7.11h2.58c.23,0,.43-.08.6-.26.17-.17.26-.38.26-.62v-5.36Z"></path>
  <path class="cls-1" d="M333.12,62.53v-4.44h-3.44v4.44h-1.82v-10.58h1.82v4.4h3.44v-4.4h1.82v10.58h-1.82Z"></path>
  <path class="cls-1" d="M337.63,62.53v-10.58h6.2v1.74h-4.39v2.66h4.39v1.74h-4.39v2.71h4.39v1.74h-6.2Z"></path>
  <path class="cls-1" d="M346.74,62.53v-10.6h1.82v10.6h-1.82Z"></path>
  <path class="cls-1" d="M355.53,53.69v8.84h-1.82v-8.84h-2.63v-1.74h7.07v1.74h-2.62Z"></path>
</svg>
