<?xml version="1.0" standalone="no"?>
<svg xmlns="http://www.w3.org/2000/svg" width="500" height="500"><defs><clipPath id="clip-path-dot-color"><path d="M 25 125v 10h 5a 5 5, 0, 0, 0, 0 -10" transform="rotate(-90,30,130)"/><rect x="25" y="135" width="10" height="10" transform="rotate(0,30,140)"/><rect x="25" y="145" width="10" height="10" transform="rotate(0,30,150)"/><path d="M 25 155v 10h 5a 5 5, 0, 0, 0, 0 -10" transform="rotate(90,30,160)"/><path d="M 25 175v 10h 5a 5 5, 0, 0, 0, 0 -10" transform="rotate(180,30,180)"/><path d="M 25 205v 10h 5a 5 5, 0, 0, 0, 0 -10" transform="rotate(180,30,210)"/><circle cx="30" cy="230" r="5" transform="rotate(0,30,230)"/><path d="M 25 245v 10h 5a 5 5, 0, 0, 0, 0 -10" transform="rotate(180,30,250)"/><path d="M 25 275v 10h 10v -5a 5 5, 0, 0, 0, -5 -5" transform="rotate(-90,30,280)"/><rect x="25" y="285" width="10" height="10" transform="rotate(0,30,290)"/><path d="M 25 295v 10h 10v -5a 5 5, 0, 0, 0, -5 -5" transform="rotate(180,30,300)"/><circle cx="30" cy="330" r="5" transform="rotate(0,30,330)"/><circle cx="30" cy="390" r="5" transform="rotate(0,30,390)"/><circle cx="40" cy="110" r="5" transform="rotate(0,40,110)"/><path d="M 35 145v 10h 5a 5 5, 0, 0, 0, 0 -10" transform="rotate(0,40,150)"/><rect x="35" y="175" width="10" height="10" transform="rotate(0,40,180)"/><path d="M 35 185v 10h 5a 5 5, 0, 0, 0, 0 -10" transform="rotate(90,40,190)"/><rect x="35" y="205" width="10" height="10" transform="rotate(0,40,210)"/><path d="M 35 235v 10h 5a 5 5, 0, 0, 0, 0 -10" transform="rotate(-90,40,240)"/><rect x="35" y="245" width="10" height="10" transform="rotate(0,40,250)"/><rect x="35" y="255" width="10" height="10" transform="rotate(0,40,260)"/><rect x="35" y="265" width="10" height="10" transform="rotate(0,40,270)"/><rect x="35" y="275" width="10" height="10" transform="rotate(0,40,280)"/><rect x="35" y="295" width="10" height="10" transform="rotate(0,40,300)"/><rect x="35" y="305" width="10" height="10" transform="rotate(0,40,310)"/><path d="M 35 315v 10h 10v -5a 5 5, 0, 0, 0, -5 -5" transform="rotate(180,40,320)"/><path d="M 35 345v 10h 10v -5a 5 5, 0, 0, 0, -5 -5" transform="rotate(-90,40,350)"/><path d="M 35 355v 10h 10v -5a 5 5, 0, 0, 0, -5 -5" transform="rotate(180,40,360)"/><path d="M 35 375v 10h 5a 5 5, 0, 0, 0, 0 -10" transform="rotate(180,40,380)"/><path d="M 45 115v 10h 5a 5 5, 0, 0, 0, 0 -10" transform="rotate(180,50,120)"/><path d="M 45 165v 10h 10v -5a 5 5, 0, 0, 0, -5 -5" transform="rotate(-90,50,170)"/><rect x="45" y="175" width="10" height="10" transform="rotate(0,50,180)"/><path d="M 45 205v 10h 5a 5 5, 0, 0, 0, 0 -10" transform="rotate(0,50,210)"/><rect x="45" y="245" width="10" height="10" transform="rotate(0,50,250)"/><rect x="45" y="265" width="10" height="10" transform="rotate(0,50,270)"/><rect x="45" y="275" width="10" height="10" transform="rotate(0,50,280)"/><rect x="45" y="285" width="10" height="10" transform="rotate(0,50,290)"/><rect x="45" y="295" width="10" height="10" transform="rotate(0,50,300)"/><rect x="45" y="315" width="10" height="10" transform="rotate(0,50,320)"/><path d="M 45 335v 10h 10v -5a 5 5, 0, 0, 0, -5 -5" transform="rotate(-90,50,340)"/><rect x="45" y="345" width="10" height="10" transform="rotate(0,50,350)"/><rect x="45" y="355" width="10" height="10" transform="rotate(0,50,360)"/><rect x="45" y="375" width="10" height="10" transform="rotate(0,50,380)"/><path d="M 55 105v 10h 10v -5a 5 5, 0, 0, 0, -5 -5" transform="rotate(-90,60,110)"/><rect x="55" y="115" width="10" height="10" transform="rotate(0,60,120)"/><rect x="55" y="125" width="10" height="10" transform="rotate(0,60,130)"/><path d="M 55 135v 10h 10v -5a 5 5, 0, 0, 0, -5 -5" transform="rotate(180,60,140)"/><path d="M 55 165v 10h 10v -5a 5 5, 0, 0, 0, -5 -5" transform="rotate(0,60,170)"/><rect x="55" y="175" width="10" height="10" transform="rotate(0,60,180)"/><path d="M 55 195v 10h 5a 5 5, 0, 0, 0, 0 -10" transform="rotate(180,60,200)"/><path d="M 55 215v 10h 10v -5a 5 5, 0, 0, 0, -5 -5" transform="rotate(-90,60,220)"/><rect x="55" y="225" width="10" height="10" transform="rotate(0,60,230)"/><rect x="55" y="235" width="10" height="10" transform="rotate(0,60,240)"/><rect x="55" y="245" width="10" height="10" transform="rotate(0,60,250)"/><rect x="55" y="255" width="10" height="10" transform="rotate(0,60,260)"/><rect x="55" y="265" width="10" height="10" transform="rotate(0,60,270)"/><rect x="55" y="275" width="10" height="10" transform="rotate(0,60,280)"/><rect x="55" y="285" width="10" height="10" transform="rotate(0,60,290)"/><rect x="55" y="295" width="10" height="10" transform="rotate(0,60,300)"/><rect x="55" y="305" width="10" height="10" transform="rotate(0,60,310)"/><rect x="55" y="315" width="10" height="10" transform="rotate(0,60,320)"/><rect x="55" y="325" width="10" height="10" transform="rotate(0,60,330)"/><rect x="55" y="335" width="10" height="10" transform="rotate(0,60,340)"/><rect x="55" y="345" width="10" height="10" transform="rotate(0,60,350)"/><path d="M 55 355v 10h 10v -5a 5 5, 0, 0, 0, -5 -5" transform="rotate(90,60,360)"/><rect x="55" y="375" width="10" height="10" transform="rotate(0,60,380)"/><path d="M 55 385v 10h 10v -5a 5 5, 0, 0, 0, -5 -5" transform="rotate(180,60,390)"/><path d="M 65 105v 10h 5a 5 5, 0, 0, 0, 0 -10" transform="rotate(0,70,110)"/><path d="M 65 135v 10h 10v -5a 5 5, 0, 0, 0, -5 -5" transform="rotate(0,70,140)"/><rect x="65" y="145" width="10" height="10" transform="rotate(0,70,150)"/><path d="M 65 155v 10h 5a 5 5, 0, 0, 0, 0 -10" transform="rotate(90,70,160)"/><rect x="65" y="175" width="10" height="10" transform="rotate(0,70,180)"/><rect x="65" y="185" width="10" height="10" transform="rotate(0,70,190)"/><path d="M 65 195v 10h 10v -5a 5 5, 0, 0, 0, -5 -5" transform="rotate(90,70,200)"/><rect x="65" y="215" width="10" height="10" transform="rotate(0,70,220)"/><rect x="65" y="225" width="10" height="10" transform="rotate(0,70,230)"/><rect x="65" y="235" width="10" height="10" transform="rotate(0,70,240)"/><rect x="65" y="245" width="10" height="10" transform="rotate(0,70,250)"/><rect x="65" y="255" width="10" height="10" transform="rotate(0,70,260)"/><rect x="65" y="265" width="10" height="10" transform="rotate(0,70,270)"/><path d="M 65 285v 10h 10v -5a 5 5, 0, 0, 0, -5 -5" transform="rotate(0,70,290)"/><rect x="65" y="295" width="10" height="10" transform="rotate(0,70,300)"/><rect x="65" y="305" width="10" height="10" transform="rotate(0,70,310)"/><path d="M 65 325v 10h 5a 5 5, 0, 0, 0, 0 -10" transform="rotate(0,70,330)"/><path d="M 65 365v 10h 5a 5 5, 0, 0, 0, 0 -10" transform="rotate(-90,70,370)"/><rect x="65" y="375" width="10" height="10" transform="rotate(0,70,380)"/><path d="M 65 385v 10h 10v -5a 5 5, 0, 0, 0, -5 -5" transform="rotate(90,70,390)"/><path d="M 75 115v 10h 5a 5 5, 0, 0, 0, 0 -10" transform="rotate(-90,80,120)"/><path d="M 75 125v 10h 10v -5a 5 5, 0, 0, 0, -5 -5" transform="rotate(180,80,130)"/><path d="M 75 175v 10h 5a 5 5, 0, 0, 0, 0 -10" transform="rotate(0,80,180)"/><path d="M 75 215v 10h 10v -5a 5 5, 0, 0, 0, -5 -5" transform="rotate(0,80,220)"/><rect x="75" y="225" width="10" height="10" transform="rotate(0,80,230)"/><rect x="75" y="265" width="10" height="10" transform="rotate(0,80,270)"/><rect x="75" y="305" width="10" height="10" transform="rotate(0,80,310)"/><path d="M 75 335v 10h 5a 5 5, 0, 0, 0, 0 -10" transform="rotate(-90,80,340)"/><rect x="75" y="345" width="10" height="10" transform="rotate(0,80,350)"/><path d="M 75 355v 10h 5a 5 5, 0, 0, 0, 0 -10" transform="rotate(90,80,360)"/><path d="M 85 105v 10h 5a 5 5, 0, 0, 0, 0 -10" transform="rotate(180,90,110)"/><path d="M 85 125v 10h 5a 5 5, 0, 0, 0, 0 -10" transform="rotate(0,90,130)"/><path d="M 85 145v 10h 5a 5 5, 0, 0, 0, 0 -10" transform="rotate(180,90,150)"/><circle cx="90" cy="170" r="5" transform="rotate(0,90,170)"/><circle cx="90" cy="190" r="5" transform="rotate(0,90,190)"/><path d="M 85 205v 10h 5a 5 5, 0, 0, 0, 0 -10" transform="rotate(180,90,210)"/><rect x="85" y="225" width="10" height="10" transform="rotate(0,90,230)"/><circle cx="90" cy="250" r="5" transform="rotate(0,90,250)"/><rect x="85" y="265" width="10" height="10" transform="rotate(0,90,270)"/><circle cx="90" cy="290" r="5" transform="rotate(0,90,290)"/><rect x="85" y="305" width="10" height="10" transform="rotate(0,90,310)"/><path d="M 85 325v 10h 5a 5 5, 0, 0, 0, 0 -10" transform="rotate(180,90,330)"/><path d="M 85 345v 10h 5a 5 5, 0, 0, 0, 0 -10" transform="rotate(0,90,350)"/><circle cx="90" cy="370" r="5" transform="rotate(0,90,370)"/><path d="M 85 385v 10h 5a 5 5, 0, 0, 0, 0 -10" transform="rotate(180,90,390)"/><rect x="95" y="105" width="10" height="10" transform="rotate(0,100,110)"/><path d="M 95 135v 10h 10v -5a 5 5, 0, 0, 0, -5 -5" transform="rotate(-90,100,140)"/><rect x="95" y="145" width="10" height="10" transform="rotate(0,100,150)"/><path d="M 95 155v 10h 10v -5a 5 5, 0, 0, 0, -5 -5" transform="rotate(180,100,160)"/><circle cx="100" cy="180" r="5" transform="rotate(0,100,180)"/><path d="M 95 195v 10h 10v -5a 5 5, 0, 0, 0, -5 -5" transform="rotate(-90,100,200)"/><rect x="95" y="205" width="10" height="10" transform="rotate(0,100,210)"/><rect x="95" y="215" width="10" height="10" transform="rotate(0,100,220)"/><rect x="95" y="225" width="10" height="10" transform="rotate(0,100,230)"/><rect x="95" y="265" width="10" height="10" transform="rotate(0,100,270)"/><rect x="95" y="305" width="10" height="10" transform="rotate(0,100,310)"/><rect x="95" y="325" width="10" height="10" transform="rotate(0,100,330)"/><path d="M 95 335v 10h 5a 5 5, 0, 0, 0, 0 -10" transform="rotate(90,100,340)"/><path d="M 95 385v 10h 5a 5 5, 0, 0, 0, 0 -10" transform="rotate(0,100,390)"/><path d="M 105 35v 10h 5a 5 5, 0, 0, 0, 0 -10" transform="rotate(180,110,40)"/><path d="M 105 55v 10h 5a 5 5, 0, 0, 0, 0 -10" transform="rotate(-90,110,60)"/><rect x="105" y="65" width="10" height="10" transform="rotate(0,110,70)"/><rect x="105" y="75" width="10" height="10" transform="rotate(0,110,80)"/><path d="M 105 85v 10h 5a 5 5, 0, 0, 0, 0 -10" transform="rotate(90,110,90)"/><rect x="105" y="105" width="10" height="10" transform="rotate(0,110,110)"/><path d="M 105 115v 10h 10v -5a 5 5, 0, 0, 0, -5 -5" transform="rotate(180,110,120)"/><path d="M 105 135v 10h 5a 5 5, 0, 0, 0, 0 -10" transform="rotate(0,110,140)"/><rect x="105" y="155" width="10" height="10" transform="rotate(0,110,160)"/><rect x="105" y="195" width="10" height="10" transform="rotate(0,110,200)"/><rect x="105" y="205" width="10" height="10" transform="rotate(0,110,210)"/><rect x="105" y="215" width="10" height="10" transform="rotate(0,110,220)"/><rect x="105" y="225" width="10" height="10" transform="rotate(0,110,230)"/><rect x="105" y="235" width="10" height="10" transform="rotate(0,110,240)"/><rect x="105" y="245" width="10" height="10" transform="rotate(0,110,250)"/><rect x="105" y="255" width="10" height="10" transform="rotate(0,110,260)"/><rect x="105" y="265" width="10" height="10" transform="rotate(0,110,270)"/><path d="M 105 285v 10h 5a 5 5, 0, 0, 0, 0 -10" transform="rotate(180,110,290)"/><path d="M 105 305v 10h 5a 5 5, 0, 0, 0, 0 -10" transform="rotate(0,110,310)"/><rect x="105" y="325" width="10" height="10" transform="rotate(0,110,330)"/><path d="M 105 355v 10h 10v -5a 5 5, 0, 0, 0, -5 -5" transform="rotate(-90,110,360)"/><path d="M 105 365v 10h 10v -5a 5 5, 0, 0, 0, -5 -5" transform="rotate(180,110,370)"/><path d="M 105 395v 10h 10v -5a 5 5, 0, 0, 0, -5 -5" transform="rotate(-90,110,400)"/><path d="M 105 405v 10h 10v -5a 5 5, 0, 0, 0, -5 -5" transform="rotate(180,110,410)"/><path d="M 105 425v 10h 10v -5a 5 5, 0, 0, 0, -5 -5" transform="rotate(-90,110,430)"/><path d="M 105 435v 10h 10v -5a 5 5, 0, 0, 0, -5 -5" transform="rotate(180,110,440)"/><path d="M 105 455v 10h 5a 5 5, 0, 0, 0, 0 -10" transform="rotate(180,110,460)"/><rect x="115" y="35" width="10" height="10" transform="rotate(0,120,40)"/><path d="M 115 95v 10h 10v -5a 5 5, 0, 0, 0, -5 -5" transform="rotate(-90,120,100)"/><rect x="115" y="105" width="10" height="10" transform="rotate(0,120,110)"/><rect x="115" y="115" width="10" height="10" transform="rotate(0,120,120)"/><path d="M 115 125v 10h 5a 5 5, 0, 0, 0, 0 -10" transform="rotate(90,120,130)"/><path d="M 115 145v 10h 5a 5 5, 0, 0, 0, 0 -10" transform="rotate(-90,120,150)"/><rect x="115" y="155" width="10" height="10" transform="rotate(0,120,160)"/><rect x="115" y="165" width="10" height="10" transform="rotate(0,120,170)"/><rect x="115" y="175" width="10" height="10" transform="rotate(0,120,180)"/><rect x="115" y="185" width="10" height="10" transform="rotate(0,120,190)"/><rect x="115" y="195" width="10" height="10" transform="rotate(0,120,200)"/><path d="M 115 205v 10h 10v -5a 5 5, 0, 0, 0, -5 -5" transform="rotate(90,120,210)"/><rect x="115" y="245" width="10" height="10" transform="rotate(0,120,250)"/><path d="M 115 265v 10h 10v -5a 5 5, 0, 0, 0, -5 -5" transform="rotate(0,120,270)"/><rect x="115" y="275" width="10" height="10" transform="rotate(0,120,280)"/><rect x="115" y="285" width="10" height="10" transform="rotate(0,120,290)"/><path d="M 115 295v 10h 10v -5a 5 5, 0, 0, 0, -5 -5" transform="rotate(180,120,300)"/><path d="M 115 315v 10h 10v -5a 5 5, 0, 0, 0, -5 -5" transform="rotate(-90,120,320)"/><rect x="115" y="325" width="10" height="10" transform="rotate(0,120,330)"/><path d="M 115 335v 10h 5a 5 5, 0, 0, 0, 0 -10" transform="rotate(90,120,340)"/><rect x="115" y="355" width="10" height="10" transform="rotate(0,120,360)"/><rect x="115" y="365" width="10" height="10" transform="rotate(0,120,370)"/><rect x="115" y="375" width="10" height="10" transform="rotate(0,120,380)"/><rect x="115" y="385" width="10" height="10" transform="rotate(0,120,390)"/><rect x="115" y="395" width="10" height="10" transform="rotate(0,120,400)"/><path d="M 115 405v 10h 10v -5a 5 5, 0, 0, 0, -5 -5" transform="rotate(90,120,410)"/><path d="M 115 425v 10h 10v -5a 5 5, 0, 0, 0, -5 -5" transform="rotate(0,120,430)"/><rect x="115" y="435" width="10" height="10" transform="rotate(0,120,440)"/><rect x="115" y="445" width="10" height="10" transform="rotate(0,120,450)"/><rect x="115" y="455" width="10" height="10" transform="rotate(0,120,460)"/><path d="M 125 35v 10h 5a 5 5, 0, 0, 0, 0 -10" transform="rotate(0,130,40)"/><path d="M 125 85v 10h 5a 5 5, 0, 0, 0, 0 -10" transform="rotate(-90,130,90)"/><rect x="125" y="95" width="10" height="10" transform="rotate(0,130,100)"/><path d="M 125 155v 10h 5a 5 5, 0, 0, 0, 0 -10" transform="rotate(0,130,160)"/><path d="M 125 175v 10h 10v -5a 5 5, 0, 0, 0, -5 -5" transform="rotate(0,130,180)"/><path d="M 125 185v 10h 10v -5a 5 5, 0, 0, 0, -5 -5" transform="rotate(90,130,190)"/><path d="M 125 235v 10h 10v -5a 5 5, 0, 0, 0, -5 -5" transform="rotate(-90,130,240)"/><rect x="125" y="245" width="10" height="10" transform="rotate(0,130,250)"/><path d="M 125 255v 10h 5a 5 5, 0, 0, 0, 0 -10" transform="rotate(90,130,260)"/><rect x="125" y="295" width="10" height="10" transform="rotate(0,130,300)"/><path d="M 125 315v 10h 5a 5 5, 0, 0, 0, 0 -10" transform="rotate(0,130,320)"/><path d="M 125 345v 10h 10v -5a 5 5, 0, 0, 0, -5 -5" transform="rotate(-90,130,350)"/><rect x="125" y="355" width="10" height="10" transform="rotate(0,130,360)"/><rect x="125" y="365" width="10" height="10" transform="rotate(0,130,370)"/><path d="M 125 375v 10h 10v -5a 5 5, 0, 0, 0, -5 -5" transform="rotate(90,130,380)"/><path d="M 125 395v 10h 5a 5 5, 0, 0, 0, 0 -10" transform="rotate(0,130,400)"/><rect x="125" y="445" width="10" height="10" transform="rotate(0,130,450)"/><rect x="125" y="455" width="10" height="10" transform="rotate(0,130,460)"/><path d="M 125 465v 10h 5a 5 5, 0, 0, 0, 0 -10" transform="rotate(90,130,470)"/><path d="M 135 65v 10h 10v -5a 5 5, 0, 0, 0, -5 -5" transform="rotate(-90,140,70)"/><path d="M 135 75v 10h 5a 5 5, 0, 0, 0, 0 -10" transform="rotate(90,140,80)"/><rect x="135" y="95" width="10" height="10" transform="rotate(0,140,100)"/><path d="M 135 105v 10h 5a 5 5, 0, 0, 0, 0 -10" transform="rotate(90,140,110)"/><circle cx="140" cy="130" r="5" transform="rotate(0,140,130)"/><path d="M 135 145v 10h 5a 5 5, 0, 0, 0, 0 -10" transform="rotate(180,140,150)"/><circle cx="140" cy="170" r="5" transform="rotate(0,140,170)"/><path d="M 135 195v 10h 5a 5 5, 0, 0, 0, 0 -10" transform="rotate(-90,140,200)"/><rect x="135" y="205" width="10" height="10" transform="rotate(0,140,210)"/><rect x="135" y="215" width="10" height="10" transform="rotate(0,140,220)"/><rect x="135" y="225" width="10" height="10" transform="rotate(0,140,230)"/><rect x="135" y="235" width="10" height="10" transform="rotate(0,140,240)"/><path d="M 135 265v 10h 5a 5 5, 0, 0, 0, 0 -10" transform="rotate(180,140,270)"/><path d="M 135 295v 10h 5a 5 5, 0, 0, 0, 0 -10" transform="rotate(0,140,300)"/><path d="M 135 325v 10h 10v -5a 5 5, 0, 0, 0, -5 -5" transform="rotate(-90,140,330)"/><rect x="135" y="335" width="10" height="10" transform="rotate(0,140,340)"/><rect x="135" y="345" width="10" height="10" transform="rotate(0,140,350)"/><rect x="135" y="365" width="10" height="10" transform="rotate(0,140,370)"/><path d="M 135 445v 10h 10v -5a 5 5, 0, 0, 0, -5 -5" transform="rotate(0,140,450)"/><path d="M 135 455v 10h 10v -5a 5 5, 0, 0, 0, -5 -5" transform="rotate(90,140,460)"/><circle cx="150" cy="50" r="5" transform="rotate(0,150,50)"/><rect x="145" y="65" width="10" height="10" transform="rotate(0,150,70)"/><path d="M 145 85v 10h 5a 5 5, 0, 0, 0, 0 -10" transform="rotate(-90,150,90)"/><path d="M 145 95v 10h 10v -5a 5 5, 0, 0, 0, -5 -5" transform="rotate(90,150,100)"/><path d="M 145 135v 10h 10v -5a 5 5, 0, 0, 0, -5 -5" transform="rotate(-90,150,140)"/><rect x="145" y="145" width="10" height="10" transform="rotate(0,150,150)"/><path d="M 145 155v 10h 10v -5a 5 5, 0, 0, 0, -5 -5" transform="rotate(180,150,160)"/><rect x="145" y="205" width="10" height="10" transform="rotate(0,150,210)"/><path d="M 145 225v 10h 10v -5a 5 5, 0, 0, 0, -5 -5" transform="rotate(0,150,230)"/><rect x="145" y="235" width="10" height="10" transform="rotate(0,150,240)"/><path d="M 145 245v 10h 5a 5 5, 0, 0, 0, 0 -10" transform="rotate(90,150,250)"/><path d="M 145 265v 10h 5a 5 5, 0, 0, 0, 0 -10" transform="rotate(0,150,270)"/><path d="M 145 285v 10h 5a 5 5, 0, 0, 0, 0 -10" transform="rotate(180,150,290)"/><circle cx="150" cy="310" r="5" transform="rotate(0,150,310)"/><rect x="145" y="325" width="10" height="10" transform="rotate(0,150,330)"/><rect x="145" y="345" width="10" height="10" transform="rotate(0,150,350)"/><path d="M 145 365v 10h 5a 5 5, 0, 0, 0, 0 -10" transform="rotate(0,150,370)"/><path d="M 145 415v 10h 10v -5a 5 5, 0, 0, 0, -5 -5" transform="rotate(-90,150,420)"/><rect x="145" y="425" width="10" height="10" transform="rotate(0,150,430)"/><path d="M 145 435v 10h 5a 5 5, 0, 0, 0, 0 -10" transform="rotate(90,150,440)"/><path d="M 155 25v 10h 5a 5 5, 0, 0, 0, 0 -10" transform="rotate(180,160,30)"/><rect x="155" y="65" width="10" height="10" transform="rotate(0,160,70)"/><path d="M 155 125v 10h 5a 5 5, 0, 0, 0, 0 -10" transform="rotate(-90,160,130)"/><path d="M 155 135v 10h 10v -5a 5 5, 0, 0, 0, -5 -5" transform="rotate(90,160,140)"/><path d="M 155 155v 10h 10v -5a 5 5, 0, 0, 0, -5 -5" transform="rotate(0,160,160)"/><rect x="155" y="165" width="10" height="10" transform="rotate(0,160,170)"/><rect x="155" y="175" width="10" height="10" transform="rotate(0,160,180)"/><rect x="155" y="185" width="10" height="10" transform="rotate(0,160,190)"/><rect x="155" y="195" width="10" height="10" transform="rotate(0,160,200)"/><rect x="155" y="205" width="10" height="10" transform="rotate(0,160,210)"/><path d="M 155 215v 10h 10v -5a 5 5, 0, 0, 0, -5 -5" transform="rotate(180,160,220)"/><path d="M 155 255v 10h 5a 5 5, 0, 0, 0, 0 -10" transform="rotate(180,160,260)"/><rect x="155" y="285" width="10" height="10" transform="rotate(0,160,290)"/><path d="M 155 315v 10h 10v -5a 5 5, 0, 0, 0, -5 -5" transform="rotate(-90,160,320)"/><rect x="155" y="325" width="10" height="10" transform="rotate(0,160,330)"/><rect x="155" y="335" width="10" height="10" transform="rotate(0,160,340)"/><rect x="155" y="345" width="10" height="10" transform="rotate(0,160,350)"/><path d="M 155 355v 10h 10v -5a 5 5, 0, 0, 0, -5 -5" transform="rotate(180,160,360)"/><path d="M 155 375v 10h 5a 5 5, 0, 0, 0, 0 -10" transform="rotate(-90,160,380)"/><path d="M 155 385v 10h 10v -5a 5 5, 0, 0, 0, -5 -5" transform="rotate(180,160,390)"/><path d="M 155 405v 10h 10v -5a 5 5, 0, 0, 0, -5 -5" transform="rotate(-90,160,410)"/><rect x="155" y="415" width="10" height="10" transform="rotate(0,160,420)"/><circle cx="160" cy="460" r="5" transform="rotate(0,160,460)"/><path d="M 165 25v 10h 10v -5a 5 5, 0, 0, 0, -5 -5" transform="rotate(0,170,30)"/><rect x="165" y="35" width="10" height="10" transform="rotate(0,170,40)"/><rect x="165" y="45" width="10" height="10" transform="rotate(0,170,50)"/><rect x="165" y="55" width="10" height="10" transform="rotate(0,170,60)"/><rect x="165" y="65" width="10" height="10" transform="rotate(0,170,70)"/><rect x="165" y="75" width="10" height="10" transform="rotate(0,170,80)"/><path d="M 165 85v 10h 5a 5 5, 0, 0, 0, 0 -10" transform="rotate(90,170,90)"/><path d="M 165 105v 10h 10v -5a 5 5, 0, 0, 0, -5 -5" transform="rotate(-90,170,110)"/><path d="M 165 115v 10h 10v -5a 5 5, 0, 0, 0, -5 -5" transform="rotate(180,170,120)"/><rect x="165" y="185" width="10" height="10" transform="rotate(0,170,190)"/><rect x="165" y="205" width="10" height="10" transform="rotate(0,170,210)"/><rect x="165" y="215" width="10" height="10" transform="rotate(0,170,220)"/><rect x="165" y="225" width="10" height="10" transform="rotate(0,170,230)"/><path d="M 165 235v 10h 5a 5 5, 0, 0, 0, 0 -10" transform="rotate(90,170,240)"/><rect x="165" y="255" width="10" height="10" transform="rotate(0,170,260)"/><path d="M 165 265v 10h 5a 5 5, 0, 0, 0, 0 -10" transform="rotate(90,170,270)"/><path d="M 165 285v 10h 10v -5a 5 5, 0, 0, 0, -5 -5" transform="rotate(0,170,290)"/><path d="M 165 295v 10h 5a 5 5, 0, 0, 0, 0 -10" transform="rotate(90,170,300)"/><rect x="165" y="315" width="10" height="10" transform="rotate(0,170,320)"/><path d="M 165 355v 10h 5a 5 5, 0, 0, 0, 0 -10" transform="rotate(0,170,360)"/><path d="M 165 385v 10h 10v -5a 5 5, 0, 0, 0, -5 -5" transform="rotate(0,170,390)"/><rect x="165" y="395" width="10" height="10" transform="rotate(0,170,400)"/><rect x="165" y="405" width="10" height="10" transform="rotate(0,170,410)"/><rect x="165" y="415" width="10" height="10" transform="rotate(0,170,420)"/><rect x="165" y="425" width="10" height="10" transform="rotate(0,170,430)"/><rect x="165" y="435" width="10" height="10" transform="rotate(0,170,440)"/><path d="M 165 445v 10h 10v -5a 5 5, 0, 0, 0, -5 -5" transform="rotate(180,170,450)"/><path d="M 175 45v 10h 5a 5 5, 0, 0, 0, 0 -10" transform="rotate(0,180,50)"/><rect x="175" y="65" width="10" height="10" transform="rotate(0,180,70)"/><rect x="175" y="75" width="10" height="10" transform="rotate(0,180,80)"/><path d="M 175 95v 10h 5a 5 5, 0, 0, 0, 0 -10" transform="rotate(-90,180,100)"/><rect x="175" y="105" width="10" height="10" transform="rotate(0,180,110)"/><rect x="175" y="115" width="10" height="10" transform="rotate(0,180,120)"/><path d="M 175 125v 10h 10v -5a 5 5, 0, 0, 0, -5 -5" transform="rotate(180,180,130)"/><path d="M 175 185v 10h 5a 5 5, 0, 0, 0, 0 -10" transform="rotate(0,180,190)"/><rect x="175" y="205" width="10" height="10" transform="rotate(0,180,210)"/><rect x="175" y="215" width="10" height="10" transform="rotate(0,180,220)"/><path d="M 175 225v 10h 10v -5a 5 5, 0, 0, 0, -5 -5" transform="rotate(90,180,230)"/><path d="M 175 255v 10h 5a 5 5, 0, 0, 0, 0 -10" transform="rotate(0,180,260)"/><path d="M 175 275v 10h 5a 5 5, 0, 0, 0, 0 -10" transform="rotate(180,180,280)"/><path d="M 175 315v 10h 5a 5 5, 0, 0, 0, 0 -10" transform="rotate(0,180,320)"/><path d="M 175 335v 10h 5a 5 5, 0, 0, 0, 0 -10" transform="rotate(180,180,340)"/><path d="M 175 405v 10h 5a 5 5, 0, 0, 0, 0 -10" transform="rotate(0,180,410)"/><rect x="175" y="435" width="10" height="10" transform="rotate(0,180,440)"/><rect x="175" y="445" width="10" height="10" transform="rotate(0,180,450)"/><path d="M 175 455v 10h 10v -5a 5 5, 0, 0, 0, -5 -5" transform="rotate(180,180,460)"/><circle cx="190" cy="30" r="5" transform="rotate(0,190,30)"/><path d="M 185 55v 10h 5a 5 5, 0, 0, 0, 0 -10" transform="rotate(-90,190,60)"/><rect x="185" y="65" width="10" height="10" transform="rotate(0,190,70)"/><rect x="185" y="75" width="10" height="10" transform="rotate(0,190,80)"/><path d="M 185 85v 10h 5a 5 5, 0, 0, 0, 0 -10" transform="rotate(90,190,90)"/><rect x="185" y="115" width="10" height="10" transform="rotate(0,190,120)"/><path d="M 185 125v 10h 10v -5a 5 5, 0, 0, 0, -5 -5" transform="rotate(90,190,130)"/><path d="M 185 165v 10h 5a 5 5, 0, 0, 0, 0 -10" transform="rotate(180,190,170)"/><path d="M 185 195v 10h 5a 5 5, 0, 0, 0, 0 -10" transform="rotate(-90,190,200)"/><rect x="185" y="205" width="10" height="10" transform="rotate(0,190,210)"/><path d="M 185 235v 10h 10v -5a 5 5, 0, 0, 0, -5 -5" transform="rotate(-90,190,240)"/><path d="M 185 245v 10h 10v -5a 5 5, 0, 0, 0, -5 -5" transform="rotate(180,190,250)"/><rect x="185" y="275" width="10" height="10" transform="rotate(0,190,280)"/><rect x="185" y="335" width="10" height="10" transform="rotate(0,190,340)"/><rect x="185" y="345" width="10" height="10" transform="rotate(0,190,350)"/><rect x="185" y="355" width="10" height="10" transform="rotate(0,190,360)"/><path d="M 185 365v 10h 10v -5a 5 5, 0, 0, 0, -5 -5" transform="rotate(180,190,370)"/><path d="M 185 395v 10h 5a 5 5, 0, 0, 0, 0 -10" transform="rotate(180,190,400)"/><path d="M 185 435v 10h 5a 5 5, 0, 0, 0, 0 -10" transform="rotate(0,190,440)"/><path d="M 185 455v 10h 5a 5 5, 0, 0, 0, 0 -10" transform="rotate(0,190,460)"/><path d="M 195 35v 10h 5a 5 5, 0, 0, 0, 0 -10" transform="rotate(180,200,40)"/><path d="M 195 75v 10h 5a 5 5, 0, 0, 0, 0 -10" transform="rotate(0,200,80)"/><path d="M 195 95v 10h 5a 5 5, 0, 0, 0, 0 -10" transform="rotate(180,200,100)"/><path d="M 195 115v 10h 5a 5 5, 0, 0, 0, 0 -10" transform="rotate(0,200,120)"/><path d="M 195 155v 10h 10v -5a 5 5, 0, 0, 0, -5 -5" transform="rotate(-90,200,160)"/><rect x="195" y="165" width="10" height="10" transform="rotate(0,200,170)"/><rect x="195" y="175" width="10" height="10" transform="rotate(0,200,180)"/><path d="M 195 185v 10h 10v -5a 5 5, 0, 0, 0, -5 -5" transform="rotate(180,200,190)"/><path d="M 195 205v 10h 5a 5 5, 0, 0, 0, 0 -10" transform="rotate(0,200,210)"/><path d="M 195 235v 10h 10v -5a 5 5, 0, 0, 0, -5 -5" transform="rotate(0,200,240)"/><rect x="195" y="245" width="10" height="10" transform="rotate(0,200,250)"/><rect x="195" y="255" width="10" height="10" transform="rotate(0,200,260)"/><rect x="195" y="265" width="10" height="10" transform="rotate(0,200,270)"/><rect x="195" y="275" width="10" height="10" transform="rotate(0,200,280)"/><path d="M 195 325v 10h 5a 5 5, 0, 0, 0, 0 -10" transform="rotate(-90,200,330)"/><rect x="195" y="335" width="10" height="10" transform="rotate(0,200,340)"/><path d="M 195 345v 10h 10v -5a 5 5, 0, 0, 0, -5 -5" transform="rotate(90,200,350)"/><path d="M 195 365v 10h 10v -5a 5 5, 0, 0, 0, -5 -5" transform="rotate(0,200,370)"/><rect x="195" y="375" width="10" height="10" transform="rotate(0,200,380)"/><rect x="195" y="385" width="10" height="10" transform="rotate(0,200,390)"/><path d="M 195 395v 10h 10v -5a 5 5, 0, 0, 0, -5 -5" transform="rotate(90,200,400)"/><path d="M 195 465v 10h 5a 5 5, 0, 0, 0, 0 -10" transform="rotate(180,200,470)"/><rect x="205" y="35" width="10" height="10" transform="rotate(0,210,40)"/><path d="M 205 45v 10h 10v -5a 5 5, 0, 0, 0, -5 -5" transform="rotate(180,210,50)"/><circle cx="210" cy="70" r="5" transform="rotate(0,210,70)"/><path d="M 205 85v 10h 5a 5 5, 0, 0, 0, 0 -10" transform="rotate(-90,210,90)"/><path d="M 205 95v 10h 10v -5a 5 5, 0, 0, 0, -5 -5" transform="rotate(90,210,100)"/><path d="M 205 135v 10h 5a 5 5, 0, 0, 0, 0 -10" transform="rotate(180,210,140)"/><rect x="205" y="155" width="10" height="10" transform="rotate(0,210,160)"/><rect x="205" y="165" width="10" height="10" transform="rotate(0,210,170)"/><rect x="205" y="175" width="10" height="10" transform="rotate(0,210,180)"/><rect x="205" y="185" width="10" height="10" transform="rotate(0,210,190)"/><path d="M 205 245v 10h 5a 5 5, 0, 0, 0, 0 -10" transform="rotate(0,210,250)"/><path d="M 205 275v 10h 5a 5 5, 0, 0, 0, 0 -10" transform="rotate(0,210,280)"/><path d="M 205 315v 10h 5a 5 5, 0, 0, 0, 0 -10" transform="rotate(180,210,320)"/><path d="M 205 355v 10h 5a 5 5, 0, 0, 0, 0 -10" transform="rotate(180,210,360)"/><path d="M 205 435v 10h 5a 5 5, 0, 0, 0, 0 -10" transform="rotate(180,210,440)"/><rect x="205" y="465" width="10" height="10" transform="rotate(0,210,470)"/><rect x="215" y="35" width="10" height="10" transform="rotate(0,220,40)"/><rect x="215" y="45" width="10" height="10" transform="rotate(0,220,50)"/><path d="M 215 75v 10h 5a 5 5, 0, 0, 0, 0 -10" transform="rotate(180,220,80)"/><path d="M 215 105v 10h 10v -5a 5 5, 0, 0, 0, -5 -5" transform="rotate(-90,220,110)"/><path d="M 215 115v 10h 5a 5 5, 0, 0, 0, 0 -10" transform="rotate(90,220,120)"/><path d="M 215 135v 10h 10v -5a 5 5, 0, 0, 0, -5 -5" transform="rotate(0,220,140)"/><rect x="215" y="145" width="10" height="10" transform="rotate(0,220,150)"/><rect x="215" y="155" width="10" height="10" transform="rotate(0,220,160)"/><rect x="215" y="165" width="10" height="10" transform="rotate(0,220,170)"/><rect x="215" y="175" width="10" height="10" transform="rotate(0,220,180)"/><rect x="215" y="185" width="10" height="10" transform="rotate(0,220,190)"/><path d="M 215 215v 10h 5a 5 5, 0, 0, 0, 0 -10" transform="rotate(180,220,220)"/><path d="M 215 295v 10h 5a 5 5, 0, 0, 0, 0 -10" transform="rotate(-90,220,300)"/><rect x="215" y="305" width="10" height="10" transform="rotate(0,220,310)"/><rect x="215" y="315" width="10" height="10" transform="rotate(0,220,320)"/><rect x="215" y="325" width="10" height="10" transform="rotate(0,220,330)"/><path d="M 215 335v 10h 10v -5a 5 5, 0, 0, 0, -5 -5" transform="rotate(180,220,340)"/><path d="M 215 355v 10h 5a 5 5, 0, 0, 0, 0 -10" transform="rotate(0,220,360)"/><path d="M 215 385v 10h 10v -5a 5 5, 0, 0, 0, -5 -5" transform="rotate(-90,220,390)"/><path d="M 215 395v 10h 10v -5a 5 5, 0, 0, 0, -5 -5" transform="rotate(180,220,400)"/><path d="M 215 425v 10h 10v -5a 5 5, 0, 0, 0, -5 -5" transform="rotate(-90,220,430)"/><rect x="215" y="435" width="10" height="10" transform="rotate(0,220,440)"/><path d="M 215 445v 10h 5a 5 5, 0, 0, 0, 0 -10" transform="rotate(90,220,450)"/><path d="M 215 465v 10h 5a 5 5, 0, 0, 0, 0 -10" transform="rotate(0,220,470)"/><path d="M 225 35v 10h 10v -5a 5 5, 0, 0, 0, -5 -5" transform="rotate(0,230,40)"/><rect x="225" y="45" width="10" height="10" transform="rotate(0,230,50)"/><rect x="225" y="55" width="10" height="10" transform="rotate(0,230,60)"/><rect x="225" y="65" width="10" height="10" transform="rotate(0,230,70)"/><rect x="225" y="75" width="10" height="10" transform="rotate(0,230,80)"/><rect x="225" y="85" width="10" height="10" transform="rotate(0,230,90)"/><rect x="225" y="95" width="10" height="10" transform="rotate(0,230,100)"/><rect x="225" y="105" width="10" height="10" transform="rotate(0,230,110)"/><path d="M 225 125v 10h 5a 5 5, 0, 0, 0, 0 -10" transform="rotate(180,230,130)"/><rect x="225" y="145" width="10" height="10" transform="rotate(0,230,150)"/><path d="M 225 165v 10h 10v -5a 5 5, 0, 0, 0, -5 -5" transform="rotate(0,230,170)"/><rect x="225" y="175" width="10" height="10" transform="rotate(0,230,180)"/><rect x="225" y="185" width="10" height="10" transform="rotate(0,230,190)"/><path d="M 225 195v 10h 10v -5a 5 5, 0, 0, 0, -5 -5" transform="rotate(180,230,200)"/><rect x="225" y="215" width="10" height="10" transform="rotate(0,230,220)"/><rect x="225" y="225" width="10" height="10" transform="rotate(0,230,230)"/><rect x="225" y="235" width="10" height="10" transform="rotate(0,230,240)"/><rect x="225" y="245" width="10" height="10" transform="rotate(0,230,250)"/><rect x="225" y="255" width="10" height="10" transform="rotate(0,230,260)"/><rect x="225" y="265" width="10" height="10" transform="rotate(0,230,270)"/><rect x="225" y="275" width="10" height="10" transform="rotate(0,230,280)"/><path d="M 225 285v 10h 5a 5 5, 0, 0, 0, 0 -10" transform="rotate(90,230,290)"/><rect x="225" y="305" width="10" height="10" transform="rotate(0,230,310)"/><rect x="225" y="315" width="10" height="10" transform="rotate(0,230,320)"/><rect x="225" y="325" width="10" height="10" transform="rotate(0,230,330)"/><rect x="225" y="335" width="10" height="10" transform="rotate(0,230,340)"/><path d="M 225 365v 10h 5a 5 5, 0, 0, 0, 0 -10" transform="rotate(180,230,370)"/><rect x="225" y="385" width="10" height="10" transform="rotate(0,230,390)"/><rect x="225" y="395" width="10" height="10" transform="rotate(0,230,400)"/><rect x="225" y="405" width="10" height="10" transform="rotate(0,230,410)"/><rect x="225" y="415" width="10" height="10" transform="rotate(0,230,420)"/><rect x="225" y="425" width="10" height="10" transform="rotate(0,230,430)"/><path d="M 235 25v 10h 5a 5 5, 0, 0, 0, 0 -10" transform="rotate(180,240,30)"/><rect x="235" y="65" width="10" height="10" transform="rotate(0,240,70)"/><rect x="235" y="105" width="10" height="10" transform="rotate(0,240,110)"/><rect x="235" y="115" width="10" height="10" transform="rotate(0,240,120)"/><path d="M 235 125v 10h 10v -5a 5 5, 0, 0, 0, -5 -5" transform="rotate(90,240,130)"/><rect x="235" y="145" width="10" height="10" transform="rotate(0,240,150)"/><path d="M 235 175v 10h 10v -5a 5 5, 0, 0, 0, -5 -5" transform="rotate(0,240,180)"/><rect x="235" y="185" width="10" height="10" transform="rotate(0,240,190)"/><rect x="235" y="195" width="10" height="10" transform="rotate(0,240,200)"/><path d="M 235 215v 10h 10v -5a 5 5, 0, 0, 0, -5 -5" transform="rotate(0,240,220)"/><rect x="235" y="225" width="10" height="10" transform="rotate(0,240,230)"/><rect x="235" y="265" width="10" height="10" transform="rotate(0,240,270)"/><path d="M 235 275v 10h 10v -5a 5 5, 0, 0, 0, -5 -5" transform="rotate(90,240,280)"/><path d="M 235 305v 10h 10v -5a 5 5, 0, 0, 0, -5 -5" transform="rotate(0,240,310)"/><rect x="235" y="315" width="10" height="10" transform="rotate(0,240,320)"/><rect x="235" y="325" width="10" height="10" transform="rotate(0,240,330)"/><rect x="235" y="335" width="10" height="10" transform="rotate(0,240,340)"/><rect x="235" y="345" width="10" height="10" transform="rotate(0,240,350)"/><rect x="235" y="355" width="10" height="10" transform="rotate(0,240,360)"/><rect x="235" y="365" width="10" height="10" transform="rotate(0,240,370)"/><rect x="235" y="375" width="10" height="10" transform="rotate(0,240,380)"/><rect x="235" y="385" width="10" height="10" transform="rotate(0,240,390)"/><rect x="235" y="425" width="10" height="10" transform="rotate(0,240,430)"/><rect x="245" y="25" width="10" height="10" transform="rotate(0,250,30)"/><path d="M 245 45v 10h 5a 5 5, 0, 0, 0, 0 -10" transform="rotate(180,250,50)"/><rect x="245" y="65" width="10" height="10" transform="rotate(0,250,70)"/><circle cx="250" cy="90" r="5" transform="rotate(0,250,90)"/><rect x="245" y="105" width="10" height="10" transform="rotate(0,250,110)"/><path d="M 245 115v 10h 10v -5a 5 5, 0, 0, 0, -5 -5" transform="rotate(90,250,120)"/><path d="M 245 145v 10h 10v -5a 5 5, 0, 0, 0, -5 -5" transform="rotate(0,250,150)"/><path d="M 245 155v 10h 5a 5 5, 0, 0, 0, 0 -10" transform="rotate(90,250,160)"/><rect x="245" y="195" width="10" height="10" transform="rotate(0,250,200)"/><rect x="245" y="225" width="10" height="10" transform="rotate(0,250,230)"/><circle cx="250" cy="250" r="5" transform="rotate(0,250,250)"/><rect x="245" y="265" width="10" height="10" transform="rotate(0,250,270)"/><path d="M 245 285v 10h 5a 5 5, 0, 0, 0, 0 -10" transform="rotate(180,250,290)"/><rect x="245" y="335" width="10" height="10" transform="rotate(0,250,340)"/><rect x="245" y="345" width="10" height="10" transform="rotate(0,250,350)"/><rect x="245" y="355" width="10" height="10" transform="rotate(0,250,360)"/><rect x="245" y="365" width="10" height="10" transform="rotate(0,250,370)"/><rect x="245" y="385" width="10" height="10" transform="rotate(0,250,390)"/><circle cx="250" cy="410" r="5" transform="rotate(0,250,410)"/><rect x="245" y="425" width="10" height="10" transform="rotate(0,250,430)"/><rect x="245" y="435" width="10" height="10" transform="rotate(0,250,440)"/><rect x="245" y="445" width="10" height="10" transform="rotate(0,250,450)"/><rect x="245" y="455" width="10" height="10" transform="rotate(0,250,460)"/><path d="M 245 465v 10h 5a 5 5, 0, 0, 0, 0 -10" transform="rotate(90,250,470)"/><path d="M 255 25v 10h 10v -5a 5 5, 0, 0, 0, -5 -5" transform="rotate(0,260,30)"/><rect x="255" y="35" width="10" height="10" transform="rotate(0,260,40)"/><rect x="255" y="45" width="10" height="10" transform="rotate(0,260,50)"/><rect x="255" y="55" width="10" height="10" transform="rotate(0,260,60)"/><rect x="255" y="65" width="10" height="10" transform="rotate(0,260,70)"/><rect x="255" y="105" width="10" height="10" transform="rotate(0,260,110)"/><path d="M 255 125v 10h 10v -5a 5 5, 0, 0, 0, -5 -5" transform="rotate(-90,260,130)"/><path d="M 255 135v 10h 5a 5 5, 0, 0, 0, 0 -10" transform="rotate(90,260,140)"/><path d="M 255 165v 10h 5a 5 5, 0, 0, 0, 0 -10" transform="rotate(-90,260,170)"/><rect x="255" y="175" width="10" height="10" transform="rotate(0,260,180)"/><rect x="255" y="185" width="10" height="10" transform="rotate(0,260,190)"/><rect x="255" y="195" width="10" height="10" transform="rotate(0,260,200)"/><path d="M 255 205v 10h 5a 5 5, 0, 0, 0, 0 -10" transform="rotate(90,260,210)"/><rect x="255" y="225" width="10" height="10" transform="rotate(0,260,230)"/><rect x="255" y="265" width="10" height="10" transform="rotate(0,260,270)"/><rect x="255" y="275" width="10" height="10" transform="rotate(0,260,280)"/><path d="M 255 285v 10h 10v -5a 5 5, 0, 0, 0, -5 -5" transform="rotate(90,260,290)"/><path d="M 255 325v 10h 5a 5 5, 0, 0, 0, 0 -10" transform="rotate(-90,260,330)"/><rect x="255" y="335" width="10" height="10" transform="rotate(0,260,340)"/><rect x="255" y="345" width="10" height="10" transform="rotate(0,260,350)"/><rect x="255" y="355" width="10" height="10" transform="rotate(0,260,360)"/><rect x="255" y="365" width="10" height="10" transform="rotate(0,260,370)"/><rect x="255" y="375" width="10" height="10" transform="rotate(0,260,380)"/><rect x="255" y="385" width="10" height="10" transform="rotate(0,260,390)"/><rect x="255" y="425" width="10" height="10" transform="rotate(0,260,430)"/><path d="M 255 445v 10h 10v -5a 5 5, 0, 0, 0, -5 -5" transform="rotate(0,260,450)"/><rect x="255" y="455" width="10" height="10" transform="rotate(0,260,460)"/><rect x="265" y="35" width="10" height="10" transform="rotate(0,270,40)"/><path d="M 265 65v 10h 10v -5a 5 5, 0, 0, 0, -5 -5" transform="rotate(0,270,70)"/><rect x="265" y="75" width="10" height="10" transform="rotate(0,270,80)"/><rect x="265" y="85" width="10" height="10" transform="rotate(0,270,90)"/><rect x="265" y="95" width="10" height="10" transform="rotate(0,270,100)"/><path d="M 265 105v 10h 10v -5a 5 5, 0, 0, 0, -5 -5" transform="rotate(90,270,110)"/><path d="M 265 125v 10h 5a 5 5, 0, 0, 0, 0 -10" transform="rotate(0,270,130)"/><path d="M 265 175v 10h 5a 5 5, 0, 0, 0, 0 -10" transform="rotate(0,270,180)"/><path d="M 265 195v 10h 5a 5 5, 0, 0, 0, 0 -10" transform="rotate(0,270,200)"/><rect x="265" y="225" width="10" height="10" transform="rotate(0,270,230)"/><rect x="265" y="235" width="10" height="10" transform="rotate(0,270,240)"/><rect x="265" y="245" width="10" height="10" transform="rotate(0,270,250)"/><rect x="265" y="255" width="10" height="10" transform="rotate(0,270,260)"/><path d="M 265 265v 10h 10v -5a 5 5, 0, 0, 0, -5 -5" transform="rotate(90,270,270)"/><circle cx="270" cy="310" r="5" transform="rotate(0,270,310)"/><path d="M 265 345v 10h 10v -5a 5 5, 0, 0, 0, -5 -5" transform="rotate(0,270,350)"/><rect x="265" y="355" width="10" height="10" transform="rotate(0,270,360)"/><rect x="265" y="365" width="10" height="10" transform="rotate(0,270,370)"/><rect x="265" y="375" width="10" height="10" transform="rotate(0,270,380)"/><rect x="265" y="385" width="10" height="10" transform="rotate(0,270,390)"/><rect x="265" y="395" width="10" height="10" transform="rotate(0,270,400)"/><rect x="265" y="405" width="10" height="10" transform="rotate(0,270,410)"/><rect x="265" y="415" width="10" height="10" transform="rotate(0,270,420)"/><path d="M 265 425v 10h 10v -5a 5 5, 0, 0, 0, -5 -5" transform="rotate(90,270,430)"/><rect x="265" y="455" width="10" height="10" transform="rotate(0,270,460)"/><path d="M 265 465v 10h 5a 5 5, 0, 0, 0, 0 -10" transform="rotate(90,270,470)"/><path d="M 275 25v 10h 10v -5a 5 5, 0, 0, 0, -5 -5" transform="rotate(-90,280,30)"/><rect x="275" y="35" width="10" height="10" transform="rotate(0,280,40)"/><path d="M 275 45v 10h 5a 5 5, 0, 0, 0, 0 -10" transform="rotate(90,280,50)"/><path d="M 275 75v 10h 5a 5 5, 0, 0, 0, 0 -10" transform="rotate(0,280,80)"/><path d="M 275 95v 10h 5a 5 5, 0, 0, 0, 0 -10" transform="rotate(0,280,100)"/><circle cx="280" cy="140" r="5" transform="rotate(0,280,140)"/><path d="M 275 155v 10h 5a 5 5, 0, 0, 0, 0 -10" transform="rotate(-90,280,160)"/><path d="M 275 165v 10h 5a 5 5, 0, 0, 0, 0 -10" transform="rotate(90,280,170)"/><path d="M 275 185v 10h 5a 5 5, 0, 0, 0, 0 -10" transform="rotate(180,280,190)"/><path d="M 275 225v 10h 5a 5 5, 0, 0, 0, 0 -10" transform="rotate(0,280,230)"/><path d="M 275 245v 10h 10v -5a 5 5, 0, 0, 0, -5 -5" transform="rotate(0,280,250)"/><rect x="275" y="255" width="10" height="10" transform="rotate(0,280,260)"/><path d="M 275 285v 10h 5a 5 5, 0, 0, 0, 0 -10" transform="rotate(-90,280,290)"/><path d="M 275 295v 10h 5a 5 5, 0, 0, 0, 0 -10" transform="rotate(90,280,300)"/><path d="M 275 315v 10h 10v -5a 5 5, 0, 0, 0, -5 -5" transform="rotate(-90,280,320)"/><path d="M 275 325v 10h 5a 5 5, 0, 0, 0, 0 -10" transform="rotate(90,280,330)"/><rect x="275" y="355" width="10" height="10" transform="rotate(0,280,360)"/><path d="M 275 385v 10h 5a 5 5, 0, 0, 0, 0 -10" transform="rotate(0,280,390)"/><path d="M 275 405v 10h 10v -5a 5 5, 0, 0, 0, -5 -5" transform="rotate(0,280,410)"/><path d="M 275 415v 10h 10v -5a 5 5, 0, 0, 0, -5 -5" transform="rotate(90,280,420)"/><path d="M 275 445v 10h 5a 5 5, 0, 0, 0, 0 -10" transform="rotate(-90,280,450)"/><path d="M 275 455v 10h 10v -5a 5 5, 0, 0, 0, -5 -5" transform="rotate(90,280,460)"/><rect x="285" y="25" width="10" height="10" transform="rotate(0,290,30)"/><path d="M 285 35v 10h 10v -5a 5 5, 0, 0, 0, -5 -5" transform="rotate(90,290,40)"/><path d="M 285 55v 10h 5a 5 5, 0, 0, 0, 0 -10" transform="rotate(-90,290,60)"/><path d="M 285 65v 10h 10v -5a 5 5, 0, 0, 0, -5 -5" transform="rotate(180,290,70)"/><circle cx="290" cy="90" r="5" transform="rotate(0,290,90)"/><circle cx="290" cy="110" r="5" transform="rotate(0,290,110)"/><circle cx="290" cy="130" r="5" transform="rotate(0,290,130)"/><path d="M 285 185v 10h 5a 5 5, 0, 0, 0, 0 -10" transform="rotate(0,290,190)"/><circle cx="290" cy="220" r="5" transform="rotate(0,290,220)"/><path d="M 285 235v 10h 5a 5 5, 0, 0, 0, 0 -10" transform="rotate(180,290,240)"/><path d="M 285 255v 10h 10v -5a 5 5, 0, 0, 0, -5 -5" transform="rotate(0,290,260)"/><rect x="285" y="265" width="10" height="10" transform="rotate(0,290,270)"/><path d="M 285 275v 10h 10v -5a 5 5, 0, 0, 0, -5 -5" transform="rotate(180,290,280)"/><path d="M 285 305v 10h 5a 5 5, 0, 0, 0, 0 -10" transform="rotate(-90,290,310)"/><path d="M 285 315v 10h 10v -5a 5 5, 0, 0, 0, -5 -5" transform="rotate(90,290,320)"/><path d="M 285 345v 10h 5a 5 5, 0, 0, 0, 0 -10" transform="rotate(-90,290,350)"/><rect x="285" y="355" width="10" height="10" transform="rotate(0,290,360)"/><path d="M 285 435v 10h 5a 5 5, 0, 0, 0, 0 -10" transform="rotate(180,290,440)"/><rect x="295" y="25" width="10" height="10" transform="rotate(0,300,30)"/><path d="M 295 45v 10h 5a 5 5, 0, 0, 0, 0 -10" transform="rotate(180,300,50)"/><rect x="295" y="65" width="10" height="10" transform="rotate(0,300,70)"/><path d="M 295 95v 10h 5a 5 5, 0, 0, 0, 0 -10" transform="rotate(180,300,100)"/><circle cx="300" cy="120" r="5" transform="rotate(0,300,120)"/><circle cx="300" cy="150" r="5" transform="rotate(0,300,150)"/><circle cx="300" cy="170" r="5" transform="rotate(0,300,170)"/><circle cx="300" cy="210" r="5" transform="rotate(0,300,210)"/><path d="M 295 225v 10h 5a 5 5, 0, 0, 0, 0 -10" transform="rotate(-90,300,230)"/><rect x="295" y="235" width="10" height="10" transform="rotate(0,300,240)"/><path d="M 295 275v 10h 10v -5a 5 5, 0, 0, 0, -5 -5" transform="rotate(0,300,280)"/><path d="M 295 285v 10h 5a 5 5, 0, 0, 0, 0 -10" transform="rotate(90,300,290)"/><circle cx="300" cy="330" r="5" transform="rotate(0,300,330)"/><rect x="295" y="355" width="10" height="10" transform="rotate(0,300,360)"/><rect x="295" y="365" width="10" height="10" transform="rotate(0,300,370)"/><path d="M 295 375v 10h 10v -5a 5 5, 0, 0, 0, -5 -5" transform="rotate(180,300,380)"/><circle cx="300" cy="420" r="5" transform="rotate(0,300,420)"/><rect x="295" y="435" width="10" height="10" transform="rotate(0,300,440)"/><rect x="295" y="445" width="10" height="10" transform="rotate(0,300,450)"/><rect x="295" y="455" width="10" height="10" transform="rotate(0,300,460)"/><path d="M 295 465v 10h 10v -5a 5 5, 0, 0, 0, -5 -5" transform="rotate(180,300,470)"/><rect x="305" y="25" width="10" height="10" transform="rotate(0,310,30)"/><rect x="305" y="35" width="10" height="10" transform="rotate(0,310,40)"/><rect x="305" y="45" width="10" height="10" transform="rotate(0,310,50)"/><rect x="305" y="55" width="10" height="10" transform="rotate(0,310,60)"/><rect x="305" y="65" width="10" height="10" transform="rotate(0,310,70)"/><rect x="305" y="75" width="10" height="10" transform="rotate(0,310,80)"/><rect x="305" y="85" width="10" height="10" transform="rotate(0,310,90)"/><rect x="305" y="95" width="10" height="10" transform="rotate(0,310,100)"/><path d="M 305 105v 10h 10v -5a 5 5, 0, 0, 0, -5 -5" transform="rotate(180,310,110)"/><circle cx="310" cy="130" r="5" transform="rotate(0,310,130)"/><path d="M 305 175v 10h 5a 5 5, 0, 0, 0, 0 -10" transform="rotate(180,310,180)"/><circle cx="310" cy="200" r="5" transform="rotate(0,310,200)"/><path d="M 305 215v 10h 5a 5 5, 0, 0, 0, 0 -10" transform="rotate(180,310,220)"/><rect x="305" y="235" width="10" height="10" transform="rotate(0,310,240)"/><rect x="305" y="245" width="10" height="10" transform="rotate(0,310,250)"/><rect x="305" y="255" width="10" height="10" transform="rotate(0,310,260)"/><path d="M 305 265v 10h 5a 5 5, 0, 0, 0, 0 -10" transform="rotate(90,310,270)"/><circle cx="310" cy="320" r="5" transform="rotate(0,310,320)"/><path d="M 305 335v 10h 10v -5a 5 5, 0, 0, 0, -5 -5" transform="rotate(-90,310,340)"/><rect x="305" y="345" width="10" height="10" transform="rotate(0,310,350)"/><rect x="305" y="355" width="10" height="10" transform="rotate(0,310,360)"/><rect x="305" y="375" width="10" height="10" transform="rotate(0,310,380)"/><path d="M 305 395v 10h 10v -5a 5 5, 0, 0, 0, -5 -5" transform="rotate(-90,310,400)"/><path d="M 305 405v 10h 10v -5a 5 5, 0, 0, 0, -5 -5" transform="rotate(180,310,410)"/><path d="M 305 425v 10h 10v -5a 5 5, 0, 0, 0, -5 -5" transform="rotate(-90,310,430)"/><path d="M 305 435v 10h 10v -5a 5 5, 0, 0, 0, -5 -5" transform="rotate(90,310,440)"/><path d="M 305 455v 10h 10v -5a 5 5, 0, 0, 0, -5 -5" transform="rotate(0,310,460)"/><rect x="305" y="465" width="10" height="10" transform="rotate(0,310,470)"/><rect x="315" y="25" width="10" height="10" transform="rotate(0,320,30)"/><rect x="315" y="35" width="10" height="10" transform="rotate(0,320,40)"/><rect x="315" y="45" width="10" height="10" transform="rotate(0,320,50)"/><rect x="315" y="55" width="10" height="10" transform="rotate(0,320,60)"/><rect x="315" y="65" width="10" height="10" transform="rotate(0,320,70)"/><path d="M 315 95v 10h 10v -5a 5 5, 0, 0, 0, -5 -5" transform="rotate(0,320,100)"/><path d="M 315 105v 10h 10v -5a 5 5, 0, 0, 0, -5 -5" transform="rotate(90,320,110)"/><path d="M 315 145v 10h 10v -5a 5 5, 0, 0, 0, -5 -5" transform="rotate(-90,320,150)"/><rect x="315" y="155" width="10" height="10" transform="rotate(0,320,160)"/><rect x="315" y="165" width="10" height="10" transform="rotate(0,320,170)"/><rect x="315" y="175" width="10" height="10" transform="rotate(0,320,180)"/><rect x="315" y="215" width="10" height="10" transform="rotate(0,320,220)"/><rect x="315" y="225" width="10" height="10" transform="rotate(0,320,230)"/><path d="M 315 235v 10h 10v -5a 5 5, 0, 0, 0, -5 -5" transform="rotate(90,320,240)"/><path d="M 315 295v 10h 5a 5 5, 0, 0, 0, 0 -10" transform="rotate(-90,320,300)"/><path d="M 315 305v 10h 5a 5 5, 0, 0, 0, 0 -10" transform="rotate(90,320,310)"/><path d="M 315 325v 10h 5a 5 5, 0, 0, 0, 0 -10" transform="rotate(-90,320,330)"/><rect x="315" y="335" width="10" height="10" transform="rotate(0,320,340)"/><rect x="315" y="355" width="10" height="10" transform="rotate(0,320,360)"/><rect x="315" y="365" width="10" height="10" transform="rotate(0,320,370)"/><path d="M 315 375v 10h 10v -5a 5 5, 0, 0, 0, -5 -5" transform="rotate(90,320,380)"/><rect x="315" y="395" width="10" height="10" transform="rotate(0,320,400)"/><rect x="315" y="405" width="10" height="10" transform="rotate(0,320,410)"/><rect x="315" y="415" width="10" height="10" transform="rotate(0,320,420)"/><rect x="315" y="425" width="10" height="10" transform="rotate(0,320,430)"/><circle cx="320" cy="450" r="5" transform="rotate(0,320,450)"/><rect x="315" y="465" width="10" height="10" transform="rotate(0,320,470)"/><path d="M 325 25v 10h 5a 5 5, 0, 0, 0, 0 -10" transform="rotate(0,330,30)"/><path d="M 325 45v 10h 5a 5 5, 0, 0, 0, 0 -10" transform="rotate(0,330,50)"/><path d="M 325 65v 10h 5a 5 5, 0, 0, 0, 0 -10" transform="rotate(0,330,70)"/><circle cx="330" cy="90" r="5" transform="rotate(0,330,90)"/><path d="M 325 115v 10h 5a 5 5, 0, 0, 0, 0 -10" transform="rotate(-90,330,120)"/><rect x="325" y="125" width="10" height="10" transform="rotate(0,330,130)"/><rect x="325" y="135" width="10" height="10" transform="rotate(0,330,140)"/><path d="M 325 145v 10h 10v -5a 5 5, 0, 0, 0, -5 -5" transform="rotate(90,330,150)"/><rect x="325" y="175" width="10" height="10" transform="rotate(0,330,180)"/><path d="M 325 185v 10h 5a 5 5, 0, 0, 0, 0 -10" transform="rotate(90,330,190)"/><path d="M 325 205v 10h 5a 5 5, 0, 0, 0, 0 -10" transform="rotate(-90,330,210)"/><rect x="325" y="215" width="10" height="10" transform="rotate(0,330,220)"/><rect x="325" y="225" width="10" height="10" transform="rotate(0,330,230)"/><path d="M 325 245v 10h 10v -5a 5 5, 0, 0, 0, -5 -5" transform="rotate(-90,330,250)"/><rect x="325" y="255" width="10" height="10" transform="rotate(0,330,260)"/><path d="M 325 265v 10h 10v -5a 5 5, 0, 0, 0, -5 -5" transform="rotate(180,330,270)"/><path d="M 325 335v 10h 10v -5a 5 5, 0, 0, 0, -5 -5" transform="rotate(0,330,340)"/><rect x="325" y="345" width="10" height="10" transform="rotate(0,330,350)"/><rect x="325" y="355" width="10" height="10" transform="rotate(0,330,360)"/><rect x="325" y="395" width="10" height="10" transform="rotate(0,330,400)"/><path d="M 325 405v 10h 10v -5a 5 5, 0, 0, 0, -5 -5" transform="rotate(90,330,410)"/><path d="M 325 425v 10h 5a 5 5, 0, 0, 0, 0 -10" transform="rotate(0,330,430)"/><path d="M 325 465v 10h 5a 5 5, 0, 0, 0, 0 -10" transform="rotate(0,330,470)"/><path d="M 335 105v 10h 5a 5 5, 0, 0, 0, 0 -10" transform="rotate(180,340,110)"/><rect x="335" y="135" width="10" height="10" transform="rotate(0,340,140)"/><path d="M 335 175v 10h 5a 5 5, 0, 0, 0, 0 -10" transform="rotate(0,340,180)"/><circle cx="340" cy="200" r="5" transform="rotate(0,340,200)"/><rect x="335" y="215" width="10" height="10" transform="rotate(0,340,220)"/><rect x="335" y="225" width="10" height="10" transform="rotate(0,340,230)"/><rect x="335" y="235" width="10" height="10" transform="rotate(0,340,240)"/><rect x="335" y="245" width="10" height="10" transform="rotate(0,340,250)"/><rect x="335" y="255" width="10" height="10" transform="rotate(0,340,260)"/><rect x="335" y="265" width="10" height="10" transform="rotate(0,340,270)"/><path d="M 335 275v 10h 10v -5a 5 5, 0, 0, 0, -5 -5" transform="rotate(180,340,280)"/><path d="M 335 295v 10h 5a 5 5, 0, 0, 0, 0 -10" transform="rotate(-90,340,300)"/><rect x="335" y="305" width="10" height="10" transform="rotate(0,340,310)"/><rect x="335" y="315" width="10" height="10" transform="rotate(0,340,320)"/><path d="M 335 325v 10h 10v -5a 5 5, 0, 0, 0, -5 -5" transform="rotate(180,340,330)"/><path d="M 335 355v 10h 5a 5 5, 0, 0, 0, 0 -10" transform="rotate(0,340,360)"/><circle cx="340" cy="380" r="5" transform="rotate(0,340,380)"/><path d="M 335 395v 10h 5a 5 5, 0, 0, 0, 0 -10" transform="rotate(0,340,400)"/><circle cx="340" cy="420" r="5" transform="rotate(0,340,420)"/><path d="M 335 435v 10h 5a 5 5, 0, 0, 0, 0 -10" transform="rotate(-90,340,440)"/><rect x="335" y="445" width="10" height="10" transform="rotate(0,340,450)"/><path d="M 335 455v 10h 5a 5 5, 0, 0, 0, 0 -10" transform="rotate(90,340,460)"/><circle cx="350" cy="50" r="5" transform="rotate(0,350,50)"/><path d="M 345 85v 10h 5a 5 5, 0, 0, 0, 0 -10" transform="rotate(-90,350,90)"/><rect x="345" y="95" width="10" height="10" transform="rotate(0,350,100)"/><path d="M 345 105v 10h 10v -5a 5 5, 0, 0, 0, -5 -5" transform="rotate(90,350,110)"/><path d="M 345 125v 10h 10v -5a 5 5, 0, 0, 0, -5 -5" transform="rotate(-90,350,130)"/><rect x="345" y="135" width="10" height="10" transform="rotate(0,350,140)"/><path d="M 345 145v 10h 10v -5a 5 5, 0, 0, 0, -5 -5" transform="rotate(180,350,150)"/><path d="M 345 205v 10h 10v -5a 5 5, 0, 0, 0, -5 -5" transform="rotate(-90,350,210)"/><rect x="345" y="215" width="10" height="10" transform="rotate(0,350,220)"/><path d="M 345 225v 10h 10v -5a 5 5, 0, 0, 0, -5 -5" transform="rotate(90,350,230)"/><rect x="345" y="245" width="10" height="10" transform="rotate(0,350,250)"/><path d="M 345 255v 10h 10v -5a 5 5, 0, 0, 0, -5 -5" transform="rotate(90,350,260)"/><rect x="345" y="275" width="10" height="10" transform="rotate(0,350,280)"/><path d="M 345 305v 10h 10v -5a 5 5, 0, 0, 0, -5 -5" transform="rotate(0,350,310)"/><rect x="345" y="315" width="10" height="10" transform="rotate(0,350,320)"/><rect x="345" y="325" width="10" height="10" transform="rotate(0,350,330)"/><path d="M 345 365v 10h 5a 5 5, 0, 0, 0, 0 -10" transform="rotate(180,350,370)"/><circle cx="350" cy="390" r="5" transform="rotate(0,350,390)"/><path d="M 345 405v 10h 5a 5 5, 0, 0, 0, 0 -10" transform="rotate(180,350,410)"/><circle cx="350" cy="470" r="5" transform="rotate(0,350,470)"/><path d="M 355 25v 10h 5a 5 5, 0, 0, 0, 0 -10" transform="rotate(-90,360,30)"/><path d="M 355 35v 10h 5a 5 5, 0, 0, 0, 0 -10" transform="rotate(90,360,40)"/><path d="M 355 65v 10h 10v -5a 5 5, 0, 0, 0, -5 -5" transform="rotate(-90,360,70)"/><path d="M 355 75v 10h 5a 5 5, 0, 0, 0, 0 -10" transform="rotate(90,360,80)"/><path d="M 355 115v 10h 5a 5 5, 0, 0, 0, 0 -10" transform="rotate(-90,360,120)"/><rect x="355" y="125" width="10" height="10" transform="rotate(0,360,130)"/><rect x="355" y="135" width="10" height="10" transform="rotate(0,360,140)"/><rect x="355" y="145" width="10" height="10" transform="rotate(0,360,150)"/><path d="M 355 155v 10h 10v -5a 5 5, 0, 0, 0, -5 -5" transform="rotate(180,360,160)"/><path d="M 355 185v 10h 5a 5 5, 0, 0, 0, 0 -10" transform="rotate(-90,360,190)"/><rect x="355" y="195" width="10" height="10" transform="rotate(0,360,200)"/><path d="M 355 205v 10h 10v -5a 5 5, 0, 0, 0, -5 -5" transform="rotate(90,360,210)"/><rect x="355" y="245" width="10" height="10" transform="rotate(0,360,250)"/><path d="M 355 265v 10h 5a 5 5, 0, 0, 0, 0 -10" transform="rotate(-90,360,270)"/><rect x="355" y="275" width="10" height="10" transform="rotate(0,360,280)"/><path d="M 355 285v 10h 10v -5a 5 5, 0, 0, 0, -5 -5" transform="rotate(180,360,290)"/><path d="M 355 315v 10h 10v -5a 5 5, 0, 0, 0, -5 -5" transform="rotate(0,360,320)"/><path d="M 355 325v 10h 10v -5a 5 5, 0, 0, 0, -5 -5" transform="rotate(90,360,330)"/><path d="M 355 355v 10h 5a 5 5, 0, 0, 0, 0 -10" transform="rotate(-90,360,360)"/><rect x="355" y="365" width="10" height="10" transform="rotate(0,360,370)"/><path d="M 355 375v 10h 5a 5 5, 0, 0, 0, 0 -10" transform="rotate(90,360,380)"/><path d="M 355 395v 10h 10v -5a 5 5, 0, 0, 0, -5 -5" transform="rotate(-90,360,400)"/><rect x="355" y="405" width="10" height="10" transform="rotate(0,360,410)"/><rect x="355" y="415" width="10" height="10" transform="rotate(0,360,420)"/><rect x="355" y="425" width="10" height="10" transform="rotate(0,360,430)"/><path d="M 355 435v 10h 10v -5a 5 5, 0, 0, 0, -5 -5" transform="rotate(180,360,440)"/><rect x="365" y="65" width="10" height="10" transform="rotate(0,370,70)"/><circle cx="370" cy="90" r="5" transform="rotate(0,370,90)"/><path d="M 365 125v 10h 10v -5a 5 5, 0, 0, 0, -5 -5" transform="rotate(0,370,130)"/><rect x="365" y="135" width="10" height="10" transform="rotate(0,370,140)"/><path d="M 365 155v 10h 5a 5 5, 0, 0, 0, 0 -10" transform="rotate(0,370,160)"/><path d="M 365 225v 10h 10v -5a 5 5, 0, 0, 0, -5 -5" transform="rotate(-90,370,230)"/><rect x="365" y="235" width="10" height="10" transform="rotate(0,370,240)"/><rect x="365" y="245" width="10" height="10" transform="rotate(0,370,250)"/><path d="M 365 255v 10h 10v -5a 5 5, 0, 0, 0, -5 -5" transform="rotate(180,370,260)"/><path d="M 365 285v 10h 10v -5a 5 5, 0, 0, 0, -5 -5" transform="rotate(0,370,290)"/><path d="M 365 295v 10h 5a 5 5, 0, 0, 0, 0 -10" transform="rotate(90,370,300)"/><path d="M 365 345v 10h 5a 5 5, 0, 0, 0, 0 -10" transform="rotate(180,370,350)"/><rect x="365" y="365" width="10" height="10" transform="rotate(0,370,370)"/><path d="M 365 385v 10h 10v -5a 5 5, 0, 0, 0, -5 -5" transform="rotate(-90,370,390)"/><rect x="365" y="395" width="10" height="10" transform="rotate(0,370,400)"/><rect x="365" y="405" width="10" height="10" transform="rotate(0,370,410)"/><path d="M 365 415v 10h 10v -5a 5 5, 0, 0, 0, -5 -5" transform="rotate(90,370,420)"/><rect x="365" y="435" width="10" height="10" transform="rotate(0,370,440)"/><path d="M 365 465v 10h 5a 5 5, 0, 0, 0, 0 -10" transform="rotate(180,370,470)"/><path d="M 375 35v 10h 5a 5 5, 0, 0, 0, 0 -10" transform="rotate(-90,380,40)"/><rect x="375" y="45" width="10" height="10" transform="rotate(0,380,50)"/><rect x="375" y="55" width="10" height="10" transform="rotate(0,380,60)"/><rect x="375" y="65" width="10" height="10" transform="rotate(0,380,70)"/><circle cx="380" cy="100" r="5" transform="rotate(0,380,100)"/><path d="M 375 135v 10h 10v -5a 5 5, 0, 0, 0, -5 -5" transform="rotate(0,380,140)"/><path d="M 375 145v 10h 5a 5 5, 0, 0, 0, 0 -10" transform="rotate(90,380,150)"/><path d="M 375 165v 10h 5a 5 5, 0, 0, 0, 0 -10" transform="rotate(-90,380,170)"/><path d="M 375 175v 10h 5a 5 5, 0, 0, 0, 0 -10" transform="rotate(90,380,180)"/><circle cx="380" cy="210" r="5" transform="rotate(0,380,210)"/><rect x="375" y="225" width="10" height="10" transform="rotate(0,380,230)"/><rect x="375" y="235" width="10" height="10" transform="rotate(0,380,240)"/><rect x="375" y="255" width="10" height="10" transform="rotate(0,380,260)"/><circle cx="380" cy="280" r="5" transform="rotate(0,380,280)"/><path d="M 375 325v 10h 10v -5a 5 5, 0, 0, 0, -5 -5" transform="rotate(-90,380,330)"/><rect x="375" y="335" width="10" height="10" transform="rotate(0,380,340)"/><rect x="375" y="345" width="10" height="10" transform="rotate(0,380,350)"/><rect x="375" y="355" width="10" height="10" transform="rotate(0,380,360)"/><path d="M 375 365v 10h 10v -5a 5 5, 0, 0, 0, -5 -5" transform="rotate(90,380,370)"/><rect x="375" y="385" width="10" height="10" transform="rotate(0,380,390)"/><rect x="375" y="395" width="10" height="10" transform="rotate(0,380,400)"/><rect x="375" y="405" width="10" height="10" transform="rotate(0,380,410)"/><rect x="375" y="435" width="10" height="10" transform="rotate(0,380,440)"/><path d="M 375 445v 10h 5a 5 5, 0, 0, 0, 0 -10" transform="rotate(90,380,450)"/><rect x="375" y="465" width="10" height="10" transform="rotate(0,380,470)"/><circle cx="390" cy="30" r="5" transform="rotate(0,390,30)"/><path d="M 385 55v 10h 10v -5a 5 5, 0, 0, 0, -5 -5" transform="rotate(0,390,60)"/><path d="M 385 65v 10h 10v -5a 5 5, 0, 0, 0, -5 -5" transform="rotate(90,390,70)"/><circle cx="390" cy="90" r="5" transform="rotate(0,390,90)"/><path d="M 385 105v 10h 5a 5 5, 0, 0, 0, 0 -10" transform="rotate(180,390,110)"/><circle cx="390" cy="130" r="5" transform="rotate(0,390,130)"/><rect x="385" y="225" width="10" height="10" transform="rotate(0,390,230)"/><rect x="385" y="235" width="10" height="10" transform="rotate(0,390,240)"/><rect x="385" y="245" width="10" height="10" transform="rotate(0,390,250)"/><rect x="385" y="255" width="10" height="10" transform="rotate(0,390,260)"/><path d="M 385 265v 10h 10v -5a 5 5, 0, 0, 0, -5 -5" transform="rotate(180,390,270)"/><path d="M 385 305v 10h 5a 5 5, 0, 0, 0, 0 -10" transform="rotate(-90,390,310)"/><rect x="385" y="315" width="10" height="10" transform="rotate(0,390,320)"/><rect x="385" y="325" width="10" height="10" transform="rotate(0,390,330)"/><rect x="385" y="345" width="10" height="10" transform="rotate(0,390,350)"/><path d="M 385 375v 10h 5a 5 5, 0, 0, 0, 0 -10" transform="rotate(-90,390,380)"/><rect x="385" y="385" width="10" height="10" transform="rotate(0,390,390)"/><rect x="385" y="395" width="10" height="10" transform="rotate(0,390,400)"/><rect x="385" y="405" width="10" height="10" transform="rotate(0,390,410)"/><rect x="385" y="415" width="10" height="10" transform="rotate(0,390,420)"/><rect x="385" y="425" width="10" height="10" transform="rotate(0,390,430)"/><path d="M 385 435v 10h 10v -5a 5 5, 0, 0, 0, -5 -5" transform="rotate(90,390,440)"/><path d="M 385 455v 10h 10v -5a 5 5, 0, 0, 0, -5 -5" transform="rotate(-90,390,460)"/><path d="M 385 465v 10h 10v -5a 5 5, 0, 0, 0, -5 -5" transform="rotate(90,390,470)"/><path d="M 395 105v 10h 10v -5a 5 5, 0, 0, 0, -5 -5" transform="rotate(0,400,110)"/><path d="M 395 115v 10h 10v -5a 5 5, 0, 0, 0, -5 -5" transform="rotate(180,400,120)"/><path d="M 395 145v 10h 5a 5 5, 0, 0, 0, 0 -10" transform="rotate(-90,400,150)"/><rect x="395" y="155" width="10" height="10" transform="rotate(0,400,160)"/><rect x="395" y="165" width="10" height="10" transform="rotate(0,400,170)"/><rect x="395" y="175" width="10" height="10" transform="rotate(0,400,180)"/><rect x="395" y="185" width="10" height="10" transform="rotate(0,400,190)"/><rect x="395" y="195" width="10" height="10" transform="rotate(0,400,200)"/><path d="M 395 205v 10h 10v -5a 5 5, 0, 0, 0, -5 -5" transform="rotate(180,400,210)"/><rect x="395" y="225" width="10" height="10" transform="rotate(0,400,230)"/><rect x="395" y="265" width="10" height="10" transform="rotate(0,400,270)"/><rect x="395" y="275" width="10" height="10" transform="rotate(0,400,280)"/><rect x="395" y="285" width="10" height="10" transform="rotate(0,400,290)"/><path d="M 395 295v 10h 5a 5 5, 0, 0, 0, 0 -10" transform="rotate(90,400,300)"/><path d="M 395 325v 10h 5a 5 5, 0, 0, 0, 0 -10" transform="rotate(0,400,330)"/><rect x="395" y="345" width="10" height="10" transform="rotate(0,400,350)"/><path d="M 395 355v 10h 10v -5a 5 5, 0, 0, 0, -5 -5" transform="rotate(180,400,360)"/><rect x="395" y="385" width="10" height="10" transform="rotate(0,400,390)"/><rect x="395" y="425" width="10" height="10" transform="rotate(0,400,430)"/><path d="M 395 455v 10h 5a 5 5, 0, 0, 0, 0 -10" transform="rotate(0,400,460)"/><rect x="405" y="115" width="10" height="10" transform="rotate(0,410,120)"/><path d="M 405 125v 10h 10v -5a 5 5, 0, 0, 0, -5 -5" transform="rotate(180,410,130)"/><rect x="405" y="175" width="10" height="10" transform="rotate(0,410,180)"/><rect x="405" y="185" width="10" height="10" transform="rotate(0,410,190)"/><path d="M 405 205v 10h 5a 5 5, 0, 0, 0, 0 -10" transform="rotate(0,410,210)"/><rect x="405" y="225" width="10" height="10" transform="rotate(0,410,230)"/><circle cx="410" cy="250" r="5" transform="rotate(0,410,250)"/><rect x="405" y="265" width="10" height="10" transform="rotate(0,410,270)"/><circle cx="410" cy="310" r="5" transform="rotate(0,410,310)"/><path d="M 405 335v 10h 5a 5 5, 0, 0, 0, 0 -10" transform="rotate(-90,410,340)"/><rect x="405" y="345" width="10" height="10" transform="rotate(0,410,350)"/><rect x="405" y="355" width="10" height="10" transform="rotate(0,410,360)"/><rect x="405" y="385" width="10" height="10" transform="rotate(0,410,390)"/><circle cx="410" cy="410" r="5" transform="rotate(0,410,410)"/><rect x="405" y="425" width="10" height="10" transform="rotate(0,410,430)"/><rect x="405" y="435" width="10" height="10" transform="rotate(0,410,440)"/><path d="M 405 445v 10h 10v -5a 5 5, 0, 0, 0, -5 -5" transform="rotate(180,410,450)"/><path d="M 415 105v 10h 10v -5a 5 5, 0, 0, 0, -5 -5" transform="rotate(-90,420,110)"/><rect x="415" y="115" width="10" height="10" transform="rotate(0,420,120)"/><rect x="415" y="125" width="10" height="10" transform="rotate(0,420,130)"/><path d="M 415 155v 10h 5a 5 5, 0, 0, 0, 0 -10" transform="rotate(-90,420,160)"/><rect x="415" y="165" width="10" height="10" transform="rotate(0,420,170)"/><rect x="415" y="175" width="10" height="10" transform="rotate(0,420,180)"/><path d="M 415 185v 10h 10v -5a 5 5, 0, 0, 0, -5 -5" transform="rotate(90,420,190)"/><path d="M 415 215v 10h 10v -5a 5 5, 0, 0, 0, -5 -5" transform="rotate(-90,420,220)"/><rect x="415" y="225" width="10" height="10" transform="rotate(0,420,230)"/><rect x="415" y="265" width="10" height="10" transform="rotate(0,420,270)"/><path d="M 415 315v 10h 5a 5 5, 0, 0, 0, 0 -10" transform="rotate(180,420,320)"/><path d="M 415 355v 10h 5a 5 5, 0, 0, 0, 0 -10" transform="rotate(0,420,360)"/><path d="M 415 375v 10h 10v -5a 5 5, 0, 0, 0, -5 -5" transform="rotate(-90,420,380)"/><rect x="415" y="385" width="10" height="10" transform="rotate(0,420,390)"/><rect x="415" y="425" width="10" height="10" transform="rotate(0,420,430)"/><rect x="415" y="435" width="10" height="10" transform="rotate(0,420,440)"/><path d="M 415 445v 10h 10v -5a 5 5, 0, 0, 0, -5 -5" transform="rotate(90,420,450)"/><circle cx="420" cy="470" r="5" transform="rotate(0,420,470)"/><rect x="425" y="105" width="10" height="10" transform="rotate(0,430,110)"/><rect x="425" y="115" width="10" height="10" transform="rotate(0,430,120)"/><path d="M 425 125v 10h 10v -5a 5 5, 0, 0, 0, -5 -5" transform="rotate(90,430,130)"/><circle cx="430" cy="150" r="5" transform="rotate(0,430,150)"/><rect x="425" y="165" width="10" height="10" transform="rotate(0,430,170)"/><rect x="425" y="175" width="10" height="10" transform="rotate(0,430,180)"/><path d="M 425 215v 10h 10v -5a 5 5, 0, 0, 0, -5 -5" transform="rotate(0,430,220)"/><rect x="425" y="225" width="10" height="10" transform="rotate(0,430,230)"/><rect x="425" y="235" width="10" height="10" transform="rotate(0,430,240)"/><rect x="425" y="245" width="10" height="10" transform="rotate(0,430,250)"/><rect x="425" y="255" width="10" height="10" transform="rotate(0,430,260)"/><rect x="425" y="265" width="10" height="10" transform="rotate(0,430,270)"/><rect x="425" y="275" width="10" height="10" transform="rotate(0,430,280)"/><rect x="425" y="285" width="10" height="10" transform="rotate(0,430,290)"/><path d="M 425 295v 10h 10v -5a 5 5, 0, 0, 0, -5 -5" transform="rotate(180,430,300)"/><path d="M 425 315v 10h 5a 5 5, 0, 0, 0, 0 -10" transform="rotate(0,430,320)"/><circle cx="430" cy="350" r="5" transform="rotate(0,430,350)"/><path d="M 425 365v 10h 10v -5a 5 5, 0, 0, 0, -5 -5" transform="rotate(-90,430,370)"/><rect x="425" y="375" width="10" height="10" transform="rotate(0,430,380)"/><rect x="425" y="385" width="10" height="10" transform="rotate(0,430,390)"/><rect x="425" y="395" width="10" height="10" transform="rotate(0,430,400)"/><rect x="425" y="405" width="10" height="10" transform="rotate(0,430,410)"/><rect x="425" y="415" width="10" height="10" transform="rotate(0,430,420)"/><rect x="425" y="425" width="10" height="10" transform="rotate(0,430,430)"/><path d="M 425 435v 10h 10v -5a 5 5, 0, 0, 0, -5 -5" transform="rotate(90,430,440)"/><path d="M 435 105v 10h 10v -5a 5 5, 0, 0, 0, -5 -5" transform="rotate(0,440,110)"/><rect x="435" y="115" width="10" height="10" transform="rotate(0,440,120)"/><path d="M 435 155v 10h 10v -5a 5 5, 0, 0, 0, -5 -5" transform="rotate(-90,440,160)"/><rect x="435" y="165" width="10" height="10" transform="rotate(0,440,170)"/><path d="M 435 175v 10h 10v -5a 5 5, 0, 0, 0, -5 -5" transform="rotate(90,440,180)"/><rect x="435" y="225" width="10" height="10" transform="rotate(0,440,230)"/><rect x="435" y="265" width="10" height="10" transform="rotate(0,440,270)"/><path d="M 435 295v 10h 5a 5 5, 0, 0, 0, 0 -10" transform="rotate(0,440,300)"/><path d="M 435 325v 10h 5a 5 5, 0, 0, 0, 0 -10" transform="rotate(-90,440,330)"/><path d="M 435 335v 10h 5a 5 5, 0, 0, 0, 0 -10" transform="rotate(90,440,340)"/><path d="M 435 365v 10h 10v -5a 5 5, 0, 0, 0, -5 -5" transform="rotate(0,440,370)"/><path d="M 435 375v 10h 10v -5a 5 5, 0, 0, 0, -5 -5" transform="rotate(90,440,380)"/><path d="M 435 415v 10h 5a 5 5, 0, 0, 0, 0 -10" transform="rotate(0,440,420)"/><circle cx="440" cy="460" r="5" transform="rotate(0,440,460)"/><rect x="445" y="115" width="10" height="10" transform="rotate(0,450,120)"/><path d="M 445 125v 10h 5a 5 5, 0, 0, 0, 0 -10" transform="rotate(90,450,130)"/><path d="M 445 145v 10h 10v -5a 5 5, 0, 0, 0, -5 -5" transform="rotate(-90,450,150)"/><rect x="445" y="155" width="10" height="10" transform="rotate(0,450,160)"/><path d="M 445 195v 10h 10v -5a 5 5, 0, 0, 0, -5 -5" transform="rotate(-90,450,200)"/><path d="M 445 205v 10h 5a 5 5, 0, 0, 0, 0 -10" transform="rotate(90,450,210)"/><rect x="445" y="225" width="10" height="10" transform="rotate(0,450,230)"/><path d="M 445 235v 10h 10v -5a 5 5, 0, 0, 0, -5 -5" transform="rotate(180,450,240)"/><path d="M 445 255v 10h 10v -5a 5 5, 0, 0, 0, -5 -5" transform="rotate(-90,450,260)"/><rect x="445" y="265" width="10" height="10" transform="rotate(0,450,270)"/><path d="M 445 285v 10h 5a 5 5, 0, 0, 0, 0 -10" transform="rotate(180,450,290)"/><path d="M 445 305v 10h 10v -5a 5 5, 0, 0, 0, -5 -5" transform="rotate(-90,450,310)"/><path d="M 445 315v 10h 10v -5a 5 5, 0, 0, 0, -5 -5" transform="rotate(180,450,320)"/><path d="M 445 345v 10h 5a 5 5, 0, 0, 0, 0 -10" transform="rotate(-90,450,350)"/><path d="M 445 355v 10h 10v -5a 5 5, 0, 0, 0, -5 -5" transform="rotate(180,450,360)"/><path d="M 445 385v 10h 5a 5 5, 0, 0, 0, 0 -10" transform="rotate(-90,450,390)"/><rect x="445" y="395" width="10" height="10" transform="rotate(0,450,400)"/><path d="M 445 405v 10h 10v -5a 5 5, 0, 0, 0, -5 -5" transform="rotate(180,450,410)"/><path d="M 445 425v 10h 5a 5 5, 0, 0, 0, 0 -10" transform="rotate(-90,450,430)"/><path d="M 445 435v 10h 10v -5a 5 5, 0, 0, 0, -5 -5" transform="rotate(180,450,440)"/><path d="M 445 465v 10h 5a 5 5, 0, 0, 0, 0 -10" transform="rotate(180,450,470)"/><path d="M 455 105v 10h 5a 5 5, 0, 0, 0, 0 -10" transform="rotate(-90,460,110)"/><rect x="455" y="115" width="10" height="10" transform="rotate(0,460,120)"/><path d="M 455 135v 10h 5a 5 5, 0, 0, 0, 0 -10" transform="rotate(-90,460,140)"/><rect x="455" y="145" width="10" height="10" transform="rotate(0,460,150)"/><rect x="455" y="155" width="10" height="10" transform="rotate(0,460,160)"/><path d="M 455 165v 10h 5a 5 5, 0, 0, 0, 0 -10" transform="rotate(90,460,170)"/><path d="M 455 185v 10h 10v -5a 5 5, 0, 0, 0, -5 -5" transform="rotate(-90,460,190)"/><path d="M 455 195v 10h 10v -5a 5 5, 0, 0, 0, -5 -5" transform="rotate(90,460,200)"/><path d="M 455 225v 10h 10v -5a 5 5, 0, 0, 0, -5 -5" transform="rotate(0,460,230)"/><rect x="455" y="235" width="10" height="10" transform="rotate(0,460,240)"/><path d="M 455 255v 10h 10v -5a 5 5, 0, 0, 0, -5 -5" transform="rotate(0,460,260)"/><rect x="455" y="265" width="10" height="10" transform="rotate(0,460,270)"/><rect x="455" y="275" width="10" height="10" transform="rotate(0,460,280)"/><rect x="455" y="285" width="10" height="10" transform="rotate(0,460,290)"/><rect x="455" y="295" width="10" height="10" transform="rotate(0,460,300)"/><rect x="455" y="305" width="10" height="10" transform="rotate(0,460,310)"/><rect x="455" y="315" width="10" height="10" transform="rotate(0,460,320)"/><rect x="455" y="325" width="10" height="10" transform="rotate(0,460,330)"/><path d="M 455 335v 10h 5a 5 5, 0, 0, 0, 0 -10" transform="rotate(90,460,340)"/><rect x="455" y="355" width="10" height="10" transform="rotate(0,460,360)"/><rect x="455" y="365" width="10" height="10" transform="rotate(0,460,370)"/><path d="M 455 375v 10h 5a 5 5, 0, 0, 0, 0 -10" transform="rotate(90,460,380)"/><rect x="455" y="405" width="10" height="10" transform="rotate(0,460,410)"/><path d="M 455 435v 10h 10v -5a 5 5, 0, 0, 0, -5 -5" transform="rotate(0,460,440)"/><rect x="455" y="445" width="10" height="10" transform="rotate(0,460,450)"/><rect x="455" y="455" width="10" height="10" transform="rotate(0,460,460)"/><path d="M 455 465v 10h 10v -5a 5 5, 0, 0, 0, -5 -5" transform="rotate(90,460,470)"/><path d="M 465 115v 10h 5a 5 5, 0, 0, 0, 0 -10" transform="rotate(0,470,120)"/><path d="M 465 145v 10h 10v -5a 5 5, 0, 0, 0, -5 -5" transform="rotate(0,470,150)"/><path d="M 465 155v 10h 10v -5a 5 5, 0, 0, 0, -5 -5" transform="rotate(90,470,160)"/><path d="M 465 185v 10h 5a 5 5, 0, 0, 0, 0 -10" transform="rotate(0,470,190)"/><circle cx="470" cy="210" r="5" transform="rotate(0,470,210)"/><path d="M 465 235v 10h 5a 5 5, 0, 0, 0, 0 -10" transform="rotate(0,470,240)"/><path d="M 465 305v 10h 5a 5 5, 0, 0, 0, 0 -10" transform="rotate(0,470,310)"/><path d="M 465 325v 10h 5a 5 5, 0, 0, 0, 0 -10" transform="rotate(0,470,330)"/><path d="M 465 355v 10h 10v -5a 5 5, 0, 0, 0, -5 -5" transform="rotate(0,470,360)"/><path d="M 465 365v 10h 10v -5a 5 5, 0, 0, 0, -5 -5" transform="rotate(90,470,370)"/><circle cx="470" cy="390" r="5" transform="rotate(0,470,390)"/><path d="M 465 405v 10h 5a 5 5, 0, 0, 0, 0 -10" transform="rotate(0,470,410)"/><circle cx="470" cy="430" r="5" transform="rotate(0,470,430)"/></clipPath><clipPath id="clip-path-corners-square-color-0-0"><path clip-rule="evenodd" d="M 25 50v 20a 25 25, 0, 0, 0, 25 25h 20a 25 25, 0, 0, 0, 25 -25v -20a 25 25, 0, 0, 0, -25 -25h -20a 25 25, 0, 0, 0, -25 25M 50 35h 20a 15 15, 0, 0, 1, 15 15v 20a 15 15, 0, 0, 1, -15 15h -20a 15 15, 0, 0, 1, -15 -15v -20a 15 15, 0, 0, 1, 15 -15" transform="rotate(0,60,60)"/></clipPath><clipPath id="clip-path-corners-dot-color-0-0"><circle cx="60" cy="60" r="15" transform="rotate(0,60,60)"/></clipPath><clipPath id="clip-path-corners-square-color-1-0"><path clip-rule="evenodd" d="M 405 50v 20a 25 25, 0, 0, 0, 25 25h 20a 25 25, 0, 0, 0, 25 -25v -20a 25 25, 0, 0, 0, -25 -25h -20a 25 25, 0, 0, 0, -25 25M 430 35h 20a 15 15, 0, 0, 1, 15 15v 20a 15 15, 0, 0, 1, -15 15h -20a 15 15, 0, 0, 1, -15 -15v -20a 15 15, 0, 0, 1, 15 -15" transform="rotate(90,440,60)"/></clipPath><clipPath id="clip-path-corners-dot-color-1-0"><circle cx="440" cy="60" r="15" transform="rotate(90,440,60)"/></clipPath><clipPath id="clip-path-corners-square-color-0-1"><path clip-rule="evenodd" d="M 25 430v 20a 25 25, 0, 0, 0, 25 25h 20a 25 25, 0, 0, 0, 25 -25v -20a 25 25, 0, 0, 0, -25 -25h -20a 25 25, 0, 0, 0, -25 25M 50 415h 20a 15 15, 0, 0, 1, 15 15v 20a 15 15, 0, 0, 1, -15 15h -20a 15 15, 0, 0, 1, -15 -15v -20a 15 15, 0, 0, 1, 15 -15" transform="rotate(-90,60,440)"/></clipPath><clipPath id="clip-path-corners-dot-color-0-1"><circle cx="60" cy="440" r="15" transform="rotate(-90,60,440)"/></clipPath></defs><rect x="0" y="0" height="500" width="500" clip-path="url('#clip-path-background-color')" fill="#fff"/><rect x="0" y="0" height="500" width="500" clip-path="url('#clip-path-dot-color')" fill="#E83223"/><rect x="25" y="25" height="70" width="70" clip-path="url('#clip-path-corners-square-color-0-0')" fill="#E83223"/><rect x="45" y="45" height="30" width="30" clip-path="url('#clip-path-corners-dot-color-0-0')" fill="#E83223"/><rect x="405" y="25" height="70" width="70" clip-path="url('#clip-path-corners-square-color-1-0')" fill="#E83223"/><rect x="425" y="45" height="30" width="30" clip-path="url('#clip-path-corners-dot-color-1-0')" fill="#E83223"/><rect x="25" y="405" height="70" width="70" clip-path="url('#clip-path-corners-square-color-0-1')" fill="#E83223"/><rect x="45" y="425" height="30" width="30" clip-path="url('#clip-path-corners-dot-color-0-1')" fill="#E83223"/></svg>